<?xml version="1.0"?>
<svg xmlns="http://www.w3.org/2000/svg" xmlns:xlink="http://www.w3.org/1999/xlink" xmlns:svgjs="http://svgjs.com/svgjs" version="1.1" width="512" height="512" x="0" y="0" viewBox="0 0 64 64" style="enable-background:new 0 0 512 512" xml:space="preserve"><g><g xmlns="http://www.w3.org/2000/svg"><path d="m1 54h62c.553 0 1-.447 1-1v-42c0-.553-.447-1-1-1h-62c-.553 0-1 .447-1 1v11 7.001 5.998 6.999 11.002c0 .553.447 1 1 1zm4.898-42h25.102v13.08c-3.387.488-6 3.401-6 6.92s2.613 6.432 6 6.92v13.08h-25.102c-.398-1.956-1.942-3.5-3.898-3.898v-5.104h7.998c.553 0 1-.447 1-1v-3.095c2.44-1.422 3.997-4.055 3.997-6.903s-1.556-5.482-3.997-6.903v-3.097c0-.553-.447-1-1-1h-7.998v-5.102c1.956-.398 3.5-1.942 3.898-3.898zm56.102 3.898v5.102h-8.002c-.553 0-1 .447-1 1v3.095c-2.44 1.422-3.997 4.055-3.997 6.903s1.556 5.482 3.997 6.903v3.097c0 .553.447 1 1 1h8.002v5.104c-1.956.398-3.5 1.942-3.898 3.898h-25.102v-13.08c3.387-.488 6-3.401 6-6.92s-2.613-6.432-6-6.92v-13.08h25.102c.398 1.956 1.942 3.5 3.898 3.898zm-.004 12.101h-1.999c-.553 0-1 .447-1 1v5.998c0 .553.447 1 1 1h1.999v5.001h-6.998v-17.998h6.998zm0 2v3.998h-.999v-3.998zm-8.998 6.464c-1.246-1.124-1.997-2.745-1.997-4.465 0-1.719.751-3.34 1.997-4.464zm-19.998-9.361c2.279.464 4 2.484 4 4.898s-1.721 4.435-4 4.898zm-2 9.796c-2.279-.464-4-2.484-4-4.898s1.721-4.435 4-4.898zm-29-.899h1.999c.553 0 1-.447 1-1v-5.998c0-.553-.447-1-1-1h-1.999v-5.001h6.998v17.998h-6.998zm0-5.998h.999v3.998h-.999zm8.998-2.466c1.246 1.124 1.997 2.745 1.997 4.465 0 1.719-.751 3.34-1.997 4.464zm-8.998 22.65c.848.301 1.514.967 1.815 1.815h-1.815zm58.185 1.815c.302-.848.968-1.514 1.815-1.815v1.815zm1.815-38.185c-.848-.302-1.514-.968-1.815-1.815h1.815zm-58.185-1.815c-.301.848-.967 1.514-1.815 1.815v-1.815z" fill="#ffffff" data-original="#000000" style=""/></g></g></svg>
