<?xml version="1.0"?>
<svg xmlns="http://www.w3.org/2000/svg" xmlns:xlink="http://www.w3.org/1999/xlink" xmlns:svgjs="http://svgjs.com/svgjs" version="1.1" width="512" height="512" x="0" y="0" viewBox="0 0 64 64" style="enable-background:new 0 0 512 512" xml:space="preserve" class=""><g><g xmlns="http://www.w3.org/2000/svg"><path d="m15 59.482h12.836c.055.01.105.033.164.033h7.999c.059 0 .108-.023.165-.033h12.836c8.271 0 15-6.729 15-15v-17.999c0-4.118-1.67-7.853-4.365-10.565-.012-.013-.016-.029-.027-.041-.012-.012-.028-.016-.041-.027-2.713-2.697-6.447-4.367-10.566-4.367h-4v-1.999h2.999.02c.553 0 1-.448 1-1 0-.271-.107-.517-.282-.697l-.538-.803.631-.945c.204-.307.224-.702.05-1.027s-.513-.528-.882-.528h-3.999c-.553 0-1 .448-1 1v3 2.999h-10v-1.999h2.999.02c.553 0 1-.448 1-1 0-.271-.107-.517-.282-.697l-.537-.803.631-.945c.204-.307.224-.702.05-1.027s-.513-.528-.882-.528h-3.999c-.553 0-1 .448-1 1v3 2.999h-10v-1.999h2.999.02c.553 0 1-.448 1-1 0-.271-.107-.517-.282-.697l-.537-.803.631-.945c.204-.307.224-.702.05-1.027s-.513-.528-.882-.528h-3.999c-.553 0-1 .448-1 1v3 2.999h-4c-4.117 0-7.852 1.669-10.564 4.364-.014.012-.031.016-.044.029s-.018.031-.03.045c-2.694 2.714-4.362 6.446-4.362 10.562v17.999c0 8.272 6.729 15 15 15zm31.132-51.998h-1.132v-1h1.132c-.179.309-.179.691 0 1zm-24 0h-1.132v-1h1.132c-.179.309-.179.691 0 1zm-20.017 38.64c2.618 4.397 7.406 7.358 12.885 7.358h7.003v4h-7.003c-6.611 0-12.073-4.963-12.885-11.358zm3.023-28.087 2.835 2.837c-.875 1.094-1.504 2.393-1.792 3.816-.001.004-.001.009-.002.013-.052.256-.091.517-.12.78h-4.008c.217-2.832 1.34-5.41 3.087-7.446zm17.863-4.554v3.995h-7.001v-3.995zm24.999 0v3.995h-6.999v-3.995zm13.949 12h-4.008c-.029-.261-.068-.52-.119-.774-.001-.009-.002-.017-.004-.026-.289-1.421-.918-2.718-1.793-3.811l2.836-2.836c1.747 2.037 2.871 4.615 3.088 7.447zm-12.949 25.999h-7.004v-4h7.004c5.479 0 10.267-2.961 12.885-7.358-.812 6.395-6.274 11.358-12.885 11.358zm-20 6v-4.998h2.016v4.998zm4.016 0v-4.998h1.983v4.998zm2.983-6.998h-7.999c-.553 0-1 .447-1 1v5.998h-2.997v-10h15.993v10h-2.997v-5.998c0-.552-.447-1-1-1zm-20.999.998c-6.611 0-12.073-4.964-12.885-11.358 2.618 4.397 7.406 7.358 12.885 7.358h7.003v4zm-8.941-23.999c.056.498.156.982.29 1.453.002.015.008.029.011.044.333 1.149.887 2.204 1.616 3.115l-2.836 2.837c-1.747-2.037-2.872-4.615-3.089-7.448h4.008zm8.941-8.001c.007 0 .013-.004.02-.004h33.956c.009 0 .016.005.024.005 2.46 0 4.624 1.279 5.873 3.204-1.843-.785-3.826-1.202-5.862-1.203-.004 0-.007-.002-.011-.002h-34c-.004 0-.008.002-.012.002-2.037.001-4.021.418-5.862 1.204 1.249-1.926 3.413-3.206 5.874-3.206zm46.949 8.001c-.217 2.833-1.342 5.412-3.089 7.448l-2.836-2.837c1.036-1.294 1.724-2.878 1.917-4.611zm-28.966 11.999v-4h6.006v4zm-7.994 0v-4h5.994v4zm-8.989 0v-4h6.989v4zm-8-12.999c0-.339.032-.669.079-.995 2.071-1.308 4.452-2.004 6.921-2.004.004 0 .006-.002.01-.002h33.98c.004 0 .006.002.01.002h.005c2.465 0 4.845.696 6.916 2.002.047.327.079.658.079.997 0 .244-.013.486-.037.724-2.133-1.121-4.502-1.716-6.939-1.72-.008 0-.016-.005-.023-.005h-34.001c-.008 0-.016.004-.023.005-2.437.004-4.807.599-6.939 1.72-.025-.238-.038-.479-.038-.724zm41.043 6.997c-.016-.001-.027-.009-.043-.009-.019 0-.035.01-.053.011h-33.894c-.018-.001-.034-.011-.053-.011-.017 0-.03.009-.047.01-1.512-.011-2.908-.506-4.05-1.334 1.313-.438 2.685-.664 4.097-.664h34c1.412 0 2.783.227 4.096.664-1.143.829-2.539 1.324-4.053 1.333zm-34.043-5.994c.007 0 .013-.004.02-.004h33.96c.007 0 .013.004.02.004 2.28 0 4.493.594 6.45 1.716-.213.502-.488.969-.807 1.404-1.791-.731-3.682-1.123-5.644-1.123h-33.999c-1.962 0-3.853.392-5.645 1.123-.318-.435-.593-.902-.806-1.404 1.959-1.121 4.172-1.716 6.451-1.716zm-5.61 6.023c1.294 1.036 2.878 1.723 4.61 1.916v4.007c-2.832-.217-5.41-1.34-7.446-3.086zm31.599 1.973h7.011v4h-7.011zm9.011-.058c1.732-.193 3.315-.88 4.609-1.915l2.837 2.837c-2.036 1.746-4.614 2.869-7.446 3.086zm-45.649 1.608c.017.019.022.043.041.062s.043.025.063.042c2.711 2.684 6.437 4.346 10.545 4.346h8.917c.024.002.047.015.072.015s.048-.013.072-.015h7.85c.024.002.047.015.072.015s.048-.013.072-.015h7.861c.024.002.047.015.072.015s.048-.013.072-.015h8.94c4.111 0 7.84-1.665 10.553-4.353.017-.016.038-.021.055-.037.016-.016.021-.037.036-.054.864-.871 1.61-1.854 2.241-2.915-.812 6.396-6.275 11.359-12.885 11.359h-34c-6.61 0-12.073-4.964-12.885-11.358.63 1.058 1.374 2.038 2.236 2.908zm50.26-17.573c-1.295-1.037-2.878-1.724-4.611-1.917v-4.008c2.833.217 5.411 1.341 7.448 3.088zm-15.61-1.98h-6.006v-3.995h6.006zm-8.006 0h-5.994v-3.995h5.994zm-16.995.063c-1.734.193-3.318.88-4.613 1.918l-2.835-2.836c2.036-1.748 4.615-2.872 7.448-3.089zm35 39.94h-7.004v-4h7.004c5.479 0 10.267-2.961 12.885-7.358-.812 6.395-6.274 11.358-12.885 11.358zm-14.868-49.998h-1.132v-1h1.132c-.179.309-.179.691 0 1z" fill="#ffffff" data-original="#000000" style="" class=""/></g></g></svg>
