<?xml version="1.0"?>
<svg xmlns="http://www.w3.org/2000/svg" xmlns:xlink="http://www.w3.org/1999/xlink" xmlns:svgjs="http://svgjs.com/svgjs" version="1.1" width="512" height="512" x="0" y="0" viewBox="0 0 64 64" style="enable-background:new 0 0 512 512" xml:space="preserve"><g><g xmlns="http://www.w3.org/2000/svg"><g><path d="m3.503 33c-.553 0-1-.447-1-1 0-3.309 2.691-6 6-6 .553 0 1 .448 1 1s-.447 1-1 1c-2.206 0-4 1.794-4 4 0 .553-.447 1-1 1z" fill="#ffffff" data-original="#000000" style=""/></g><g><path d="m11.503 28h-3c-.553 0-1-.448-1-1s.447-1 1-1h3c.553 0 1 .448 1 1s-.447 1-1 1z" fill="#ffffff" data-original="#000000" style=""/></g><g><path d="m3.503 37.001c-.553 0-1-.446-1-1v-4.001c0-.552.447-1 1-1s1 .448 1 1v4.001c0 .554-.447 1-1 1z" fill="#ffffff" data-original="#000000" style=""/></g><g><path d="m27.503 33c-.553 0-1-.447-1-1 0-2.206-1.794-4-4-4-.553 0-1-.448-1-1s.447-1 1-1c3.309 0 6 2.691 6 6 0 .553-.447 1-1 1z" fill="#ffffff" data-original="#000000" style=""/></g><g><path d="m22.503 28h-3c-.553 0-1-.448-1-1s.447-1 1-1h3c.553 0 1 .448 1 1s-.447 1-1 1z" fill="#ffffff" data-original="#000000" style=""/></g><g><path d="m27.503 37.001c-.553 0-1-.446-1-1v-4.001c0-.552.447-1 1-1s1 .448 1 1v4.001c0 .554-.447 1-1 1z" fill="#ffffff" data-original="#000000" style=""/></g><g><path d="m11.503 28c-.553 0-1-.448-1-1v-3.936c0-.552.447-1 1-1s1 .448 1 1v3.936c0 .552-.447 1-1 1z" fill="#ffffff" data-original="#000000" style=""/></g><g><path d="m19.503 28c-.553 0-1-.448-1-1v-3.936c0-.552.447-1 1-1s1 .448 1 1v3.936c0 .552-.447 1-1 1z" fill="#ffffff" data-original="#000000" style=""/></g><g><path d="m15.502 25c-5.514 0-9.999-4.485-9.999-9.998 0-.552.447-1 1-1s1 .448 1 1c0 4.41 3.588 7.998 7.999 7.998 4.412 0 8.001-3.588 8.001-7.998 0-.552.447-1 1-1s1 .448 1 1c0 5.513-4.486 9.998-10.001 9.998z" fill="#ffffff" data-original="#000000" style=""/></g><g><path d="m6.503 16.051c-.553 0-1-.448-1-1v-6.051c0-.552.447-1 1-1s1 .448 1 1v6.051c0 .552-.447 1-1 1z" fill="#ffffff" data-original="#000000" style=""/></g><g><path d="m24.503 16.002c-.553 0-1-.448-1-1v-6.002c0-.552.447-1 1-1s1 .448 1 1v6.002c0 .552-.447 1-1 1z" fill="#ffffff" data-original="#000000" style=""/></g><g><path d="m24.503 10c-.553 0-1-.448-1-1 0-1.654-1.346-3-3-3-.553 0-1-.448-1-1s.447-1 1-1c2.757 0 5 2.243 5 5 0 .552-.447 1-1 1z" fill="#ffffff" data-original="#000000" style=""/></g><g><path d="m20.503 6c-.553 0-1-.448-1-1v-4c0-.552.447-1 1-1s1 .448 1 1v4c0 .552-.447 1-1 1z" fill="#ffffff" data-original="#000000" style=""/></g><g><path d="m20.503 2h-6c-.553 0-1-.448-1-1s.447-1 1-1h6c.553 0 1 .448 1 1s-.447 1-1 1z" fill="#ffffff" data-original="#000000" style=""/></g><g><path d="m6.503 10c-.553 0-1-.448-1-1 0-4.962 4.037-9 9-9 .553 0 1 .448 1 1s-.447 1-1 1c-3.859 0-7 3.14-7 7 0 .552-.447 1-1 1z" fill="#ffffff" data-original="#000000" style=""/></g><g><g><path d="m24.502 13.025c-.192 0-.387-.055-.559-.171l-3-2.025c-.458-.309-.578-.931-.27-1.388.31-.458.931-.579 1.389-.269l3 2.025c.458.309.578.931.27 1.388-.193.286-.509.44-.83.44z" fill="#ffffff" data-original="#000000" style=""/></g><g><path d="m16.003 12c-3.612 0-6.687-1.008-6.815-1.051-.523-.174-.807-.739-.634-1.263.174-.524.74-.811 1.264-.635.029.01 2.908.949 6.185.949 3.178 0 5.04-.888 5.059-.897.494-.242 1.094-.038 1.337.457.243.494.043 1.09-.449 1.335-.092.045-2.262 1.105-5.947 1.105z" fill="#ffffff" data-original="#000000" style=""/></g><g><path d="m6.504 13.025c-.321 0-.637-.154-.83-.44-.309-.458-.188-1.079.27-1.388l3-2.025c.459-.31 1.079-.188 1.389.269.309.458.188 1.079-.27 1.388l-3 2.025c-.172.116-.367.171-.559.171z" fill="#ffffff" data-original="#000000" style=""/></g></g><g><path d="m39.497 42.96c-.554 0-1-.446-1-1v-4.319c0-.554.446-1 1-1 .553 0 1 .446 1 1v4.319c0 .554-.447 1-1 1z" fill="#ffffff" data-original="#000000" style=""/></g><g><path d="m57.497 43c-.554 0-1-.447-1-1v-4.501c0-.554.446-1 1-1 .553 0 1 .446 1 1v4.501c0 .553-.447 1-1 1z" fill="#ffffff" data-original="#000000" style=""/></g><g><path d="m57.497 38.499c-.554 0-1-.446-1-1 0-4.687-3.813-8.499-8.501-8.499s-8.499 3.813-8.499 8.499c0 .554-.447 1-1 1-.554 0-1-.446-1-1 0-5.789 4.71-10.499 10.499-10.499 5.79 0 10.501 4.71 10.501 10.499 0 .554-.447 1-1 1z" fill="#ffffff" data-original="#000000" style=""/></g><g><path d="m57.498 40c-.301 0-.598-.135-.795-.393-2.461-3.213-3.566-2.883-6.523-2-2.546.756-6.033 1.797-11.839.879-.545-.086-.918-.598-.831-1.145.086-.545.604-.919 1.145-.83 5.355.844 8.592-.119 10.953-.822 3.131-.93 5.39-1.603 8.685 2.701.336.438.253 1.066-.187 1.402-.182.142-.396.208-.608.208z" fill="#ffffff" data-original="#000000" style=""/></g><g><path d="m52.518 37.027c-.193 0-.391-.057-.563-.174-.456-.312-.573-.935-.262-1.391l2.979-4.36c.313-.457.936-.574 1.391-.262.457.312.574.934.263 1.39l-2.979 4.361c-.197.285-.51.436-.829.436z" fill="#ffffff" data-original="#000000" style=""/></g><g><path d="m36.497 60c-.554 0-1-.447-1-1 0-3.309 2.69-6 6-6 .553 0 1 .447 1 1s-.447 1-1 1c-2.206 0-4 1.794-4 4 0 .553-.447 1-1 1z" fill="#ffffff" data-original="#000000" style=""/></g><g><path d="m44.497 55h-3c-.554 0-1-.447-1-1s.446-1 1-1h3c.553 0 1 .447 1 1s-.447 1-1 1z" fill="#ffffff" data-original="#000000" style=""/></g><g><path d="m36.497 63.999c-.554 0-1-.446-1-1v-3.999c0-.553.446-1 1-1 .553 0 1 .447 1 1v3.999c0 .554-.447 1-1 1z" fill="#ffffff" data-original="#000000" style=""/></g><g><path d="m60.497 60c-.554 0-1-.447-1-1 0-2.206-1.794-4-4-4-.554 0-1-.447-1-1s.446-1 1-1c3.31 0 6 2.691 6 6 0 .553-.447 1-1 1z" fill="#ffffff" data-original="#000000" style=""/></g><g><path d="m55.497 55h-3c-.554 0-1-.447-1-1s.446-1 1-1h3c.553 0 1 .447 1 1s-.447 1-1 1z" fill="#ffffff" data-original="#000000" style=""/></g><g><path d="m60.497 63.999c-.554 0-1-.446-1-1v-3.999c0-.553.446-1 1-1 .553 0 1 .447 1 1v3.999c0 .554-.447 1-1 1z" fill="#ffffff" data-original="#000000" style=""/></g><g><path d="m44.497 55c-.554 0-1-.447-1-1v-3.936c0-.553.446-1 1-1 .553 0 1 .447 1 1v3.936c0 .553-.447 1-1 1z" fill="#ffffff" data-original="#000000" style=""/></g><g><path d="m52.497 55c-.554 0-1-.447-1-1v-3.936c0-.553.446-1 1-1 .553 0 1 .447 1 1v3.936c0 .553-.447 1-1 1z" fill="#ffffff" data-original="#000000" style=""/></g><g><path d="m48.496 52c-5.514 0-9.999-4.484-9.999-9.998 0-.553.446-1 1-1 .553 0 1 .447 1 1 0 4.41 3.588 7.998 7.999 7.998 4.412 0 8.001-3.588 8.001-7.998 0-.553.446-1 1-1 .553 0 1 .447 1 1 0 5.514-4.485 9.998-10.001 9.998z" fill="#ffffff" data-original="#000000" style=""/></g><g><path d="m48.497 57.001c-2.851 0-5-1.291-5-3.004 0-.554.446-1 1-1 .553 0 1 .446 1 1 0 .25 1.063 1.004 3 1.004s3-.754 3-1.004c0-.554.446-1 1-1 .553 0 1 .446 1 1 0 1.713-2.149 3.004-5 3.004z" fill="#ffffff" data-original="#000000" style=""/></g><g><g><path d="m46.997 64c-.554 0-1-.447-1-1v-3c0-.553.446-1 1-1 .553 0 1 .447 1 1v3c0 .553-.447 1-1 1z" fill="#ffffff" data-original="#000000" style=""/></g><g><path d="m49.997 64c-.554 0-1-.447-1-1v-3c0-.553.446-1 1-1 .553 0 1 .447 1 1v3c0 .553-.447 1-1 1z" fill="#ffffff" data-original="#000000" style=""/></g></g><g><path d="m15.503 30.004c-2.851 0-5-1.292-5-3.004 0-.552.447-1 1-1s1 .448 1 1c0 .25 1.064 1.004 3 1.004s3-.754 3-1.004c0-.552.447-1 1-1s1 .448 1 1c0 1.712-2.149 3.004-5 3.004z" fill="#ffffff" data-original="#000000" style=""/></g><g><path d="m15.503 37.003c-.553 0-1-.446-1-1v-3c0-.552.447-1 1-1s1 .448 1 1v3c0 .554-.447 1-1 1z" fill="#ffffff" data-original="#000000" style=""/></g><g><path d="m48.498 25c-.553 0-1-.448-1-1v-13.001c0-.552.447-1 1-1s1 .448 1 1v13.001c0 .552-.447 1-1 1z" fill="#ffffff" data-original="#000000" style=""/></g><g><path d="m48.498 11.999h-19.995c-.553 0-1-.448-1-1s.447-1 1-1h19.995c.553 0 1 .448 1 1s-.447 1-1 1z" fill="#ffffff" data-original="#000000" style=""/></g><g><path d="m30.502 13.998c-.256 0-.512-.098-.707-.293l-1.999-1.999c-.391-.391-.391-1.023 0-1.414s1.023-.391 1.414 0l1.999 1.999c.391.391.391 1.023 0 1.414-.195.195-.451.293-.707.293z" fill="#ffffff" data-original="#000000" style=""/></g><g><path d="m28.503 11.999c-.256 0-.512-.098-.707-.293-.391-.391-.391-1.023 0-1.414l1.999-1.999c.391-.391 1.023-.391 1.414 0s.391 1.023 0 1.414l-1.999 1.999c-.195.195-.451.293-.707.293z" fill="#ffffff" data-original="#000000" style=""/></g><g><path d="m15.497 54.02c-.553 0-1-.447-1-1v-13.008c0-.553.447-1 1-1s1 .447 1 1v13.008c0 .55-.447 1-1 1z" fill="#ffffff" data-original="#000000" style=""/></g><g><path d="m34.491 54.02h-18.994c-.553 0-1-.447-1-1 0-.554.447-1 1-1h18.994c.553 0 1 .446 1 1 0 .552-.447 1-1 1z" fill="#ffffff" data-original="#000000" style=""/></g><g><path d="m34.491 54.02c-.257 0-.513-.099-.707-.293l-2-2.002c-.391-.391-.391-1.022 0-1.414.391-.391 1.022-.391 1.414 0l2 2.002c.391.391.391 1.022 0 1.414-.195.194-.451.293-.707.293z" fill="#ffffff" data-original="#000000" style=""/></g><g><path d="m32.491 56.02c-.256 0-.512-.099-.707-.293-.391-.392-.391-1.023 0-1.414l2-2c.391-.392 1.022-.392 1.414 0 .391.391.391 1.022 0 1.414l-2 2c-.195.194-.451.293-.707.293z" fill="#ffffff" data-original="#000000" style=""/></g><g><path d="m60.497 63.999h-24c-.554 0-1-.446-1-1s.446-1 1-1h24c.553 0 1 .446 1 1s-.447 1-1 1z" fill="#ffffff" data-original="#000000" style=""/></g><g><path d="m27.503 37.001h-24c-.553 0-1-.446-1-1s.447-1 1-1h24c.553 0 1 .446 1 1s-.447 1-1 1z" fill="#ffffff" data-original="#000000" style=""/></g></g></g></svg>
