<?xml version="1.0"?>
<svg xmlns="http://www.w3.org/2000/svg" xmlns:xlink="http://www.w3.org/1999/xlink" xmlns:svgjs="http://svgjs.com/svgjs" version="1.1" width="512" height="512" x="0" y="0" viewBox="0 0 64 64" style="enable-background:new 0 0 512 512" xml:space="preserve" class=""><g><g xmlns="http://www.w3.org/2000/svg"><path d="m25.095 12.78c-.351.254-.497.706-.363 1.118l2.411 7.414c.134.411.518.69.951.69h7.8c.434 0 .817-.279.951-.69l2.411-7.414c.134-.412-.013-.864-.363-1.118l-6.311-4.586c-.35-.256-.824-.256-1.176 0zm12.034 1.191-1.962 6.032h-6.347l-1.962-6.032 5.136-3.731z" fill="#ffffff" data-original="#000000" style="" class=""/><path d="m20.003 48.998c-.553 0-1 .447-1 1v13.001c0 .553.447 1 1 1h23.996c.553 0 1-.447 1-1v-13.001c0-.553-.447-1-1-1h-5.008v-13.314c5.624-4.86 9.009-11.996 9.009-19.685 0-3.142-.924-6.066-2.494-8.541-.006-.008-.01-.017-.016-.024-2.162-3.392-5.561-5.908-9.56-6.924-.002-.001-.003-.001-.004-.001-1.258-.32-2.57-.508-3.926-.508-5.669 0-10.646 2.972-13.489 7.431-.008.011-.013.023-.021.034-1.568 2.473-2.49 5.394-2.49 8.533 0 7.685 3.383 14.819 9.004 19.679v13.32zm22.996 13.001h-21.996v-11.001h10.982c.005 0 .01.003.015.003s.01-.003.015-.003h10.984zm-6.008-13.001h-3.991v-9.446c1.411-.659 2.746-1.432 3.991-2.312zm6.44-29.353 2.509-2.443c-.185 2.151-.861 4.159-1.911 5.924zm-.999-12.949-3.361-.49-1.505-3.045c1.872.815 3.524 2.032 4.866 3.535zm-7.518-4.385 2.596 5.253c.146.295.427.499.752.546l5.818.848c.963 1.646 1.606 3.5 1.828 5.483l-4.249 4.138c-.236.23-.344.562-.288.886l1.012 5.893c-1.279 1.418-2.84 2.573-4.599 3.376l-5.319-2.795c-.291-.154-.639-.153-.93-.001l-5.321 2.795c-1.758-.803-3.317-1.957-4.597-3.375l1.012-5.893c.056-.324-.052-.655-.288-.886l-4.249-4.137c.221-1.984.864-3.838 1.829-5.484l5.817-.848c.325-.047.606-.251.752-.546l2.596-5.253c.94-.201 1.914-.31 2.914-.31s1.974.109 2.914.31zm.263 27.31c-1.022.238-2.083.377-3.177.377s-2.154-.139-3.177-.377l3.177-1.669zm-15.205-6.496c-1.05-1.765-1.727-3.771-1.911-5.923l2.509 2.442zm6.463-19.964-1.505 3.045-3.361.49c1.341-1.503 2.994-2.72 4.866-3.535zm-5.468 24.397c1.44 1.374 3.13 2.486 5.002 3.251.003.001.006.003.01.004 1.86.759 3.891 1.186 6.021 1.186 2.139 0 4.178-.43 6.045-1.194.009-.003.018-.007.027-.01 1.855-.765 3.531-1.872 4.962-3.237-2.435 4.434-6.257 8.066-11.032 10.257-4.777-2.191-8.601-5.824-11.035-10.257zm6.037 9.677c1.247.881 2.583 1.655 3.996 2.315v9.447h-3.996z" fill="#ffffff" data-original="#000000" style="" class=""/><path d="m24 53.998c-.553 0-1 .447-1 1v3c0 .553.447 1 1 1 0 .553.447 1 1 1h14c.553 0 1-.447 1-1 .553 0 1-.447 1-1v-3c0-.553-.447-1-1-1 0-.553-.447-1-1-1h-14c-.553 0-1 .447-1 1zm1.731 1h12.537c.176.303.429.556.731.731v1.537c-.303.176-.556.429-.731.731h-12.537c-.176-.303-.429-.556-.731-.731v-1.537c.303-.175.556-.428.731-.731z" fill="#ffffff" data-original="#000000" style="" class=""/></g></g></svg>
