<!DOCTYPE svg PUBLIC "-//W3C//DTD SVG 20010904//EN" "http://www.w3.org/TR/2001/REC-SVG-20010904/DTD/svg10.dtd">
<svg version="1.0" xmlns="http://www.w3.org/2000/svg" width="140px" height="160px" viewBox="0 0 1400 1600" preserveAspectRatio="xMidYMid meet">
<g id="layer101" fill="#2a2721" stroke="none">
<path d="M230 1577 c19 -12 82 -47 140 -77 142 -75 142 -74 103 -234 -22 -88 -38 -133 -52 -145 -25 -22 -56 -92 -66 -149 -4 -26 -12 -42 -21 -42 -8 0 -24 -15 -35 -32 -17 -28 -20 -45 -16 -114 3 -47 12 -96 22 -117 12 -25 15 -49 11 -74 -3 -21 -9 -69 -12 -108 -4 -38 -11 -73 -17 -76 -6 -4 -1 -19 11 -37 l22 -30 -23 -15 c-19 -13 -20 -18 -9 -36 7 -12 10 -25 8 -30 -3 -4 -1 -25 5 -45 7 -26 15 -36 24 -32 8 3 18 0 22 -7 14 -22 140 -96 169 -99 16 -2 31 -6 34 -10 3 -4 23 -3 45 2 29 7 52 5 83 -6 38 -12 46 -12 72 1 16 8 38 15 50 15 11 0 20 7 20 15 0 17 31 51 70 76 23 15 42 43 89 137 45 88 48 104 43 205 -4 90 -3 100 16 113 11 7 27 35 36 61 17 50 22 153 7 153 -5 0 -12 9 -16 20 -3 11 -20 28 -37 37 l-30 18 4 105 c3 75 10 115 23 140 24 46 84 99 112 100 13 0 28 9 35 20 7 11 18 20 25 20 7 0 13 4 13 8 0 4 17 14 38 21 20 8 48 21 61 30 14 9 39 21 55 26 l31 10 3 103 3 102 -603 0 -603 0 35 -23z"/>
</g>
<g id="layer102" fill="#4f3d33" stroke="none">
<path d="M230 1577 c19 -12 82 -47 140 -77 142 -75 142 -74 103 -234 -22 -88 -38 -133 -52 -145 -25 -22 -56 -92 -66 -149 -4 -26 -12 -42 -21 -42 -8 0 -24 -15 -35 -32 -17 -28 -20 -45 -16 -114 3 -47 12 -96 22 -117 12 -25 15 -49 11 -74 -3 -21 -9 -69 -12 -108 -4 -38 -11 -73 -17 -76 -6 -4 -1 -19 11 -37 l22 -30 -23 -15 c-19 -13 -20 -18 -9 -36 7 -12 10 -25 8 -30 -3 -4 -1 -25 5 -45 7 -26 15 -36 24 -32 8 3 18 0 22 -7 14 -22 140 -96 169 -99 16 -2 31 -6 34 -10 3 -4 23 -3 45 2 29 7 52 5 83 -6 38 -12 46 -12 72 1 16 8 38 15 50 15 11 0 20 7 20 15 0 17 31 51 70 76 23 15 42 43 89 137 45 88 48 104 43 205 -4 90 -3 100 16 113 11 7 27 35 36 61 17 50 22 153 7 153 -5 0 -12 9 -16 20 -3 11 -20 28 -37 37 l-30 18 4 105 c3 75 10 115 23 140 24 46 84 99 112 100 13 0 28 9 35 20 7 11 18 20 25 20 7 0 13 4 13 8 0 4 17 14 38 21 20 8 48 21 61 30 14 9 39 21 55 26 l31 10 3 103 3 102 -257 0 -257 0 60 -62 c48 -51 183 -237 183 -254 0 -2 -6 -4 -14 -4 -7 0 -19 -7 -26 -15 -7 -8 -16 -15 -21 -15 -4 0 -24 31 -44 70 -27 49 -61 92 -123 152 -105 101 -156 128 -239 128 -56 0 -64 -3 -102 -37 -32 -30 -44 -48 -50 -83 l-8 -45 -11 40 c-7 22 -12 59 -12 83 l0 42 -142 0 -143 0 35 -23z m1109 -110 c-6 -13 -17 -24 -25 -24 -11 0 -11 3 -1 16 11 15 29 30 34 31 2 0 -2 -10 -8 -23z m-679 -202 c7 -8 9 -24 5 -37 -7 -22 -6 -22 7 -4 10 13 22 17 37 13 11 -3 21 -1 21 5 0 5 7 2 16 -6 8 -9 22 -16 30 -16 7 0 16 -11 20 -25 5 -19 13 -25 34 -25 29 0 48 -15 35 -28 -3 -3 -10 0 -15 8 -8 12 -10 12 -10 1 0 -8 -6 -11 -16 -7 -8 3 -12 2 -9 -4 3 -6 1 -10 -4 -10 -6 0 -11 5 -11 11 0 8 -5 8 -15 -1 -12 -10 -15 -10 -15 2 0 8 -11 21 -25 28 -14 7 -25 22 -25 32 0 16 -5 18 -22 12 -41 -13 -86 -11 -81 4 9 23 -68 -15 -99 -49 -15 -16 -33 -29 -40 -29 -8 1 -6 6 6 15 11 8 16 15 11 15 -4 0 12 20 37 45 25 25 55 45 66 45 12 0 24 5 27 10 9 14 21 12 35 -5z m250 -154 c16 -30 12 -36 -10 -16 -21 19 -26 35 -10 35 5 0 14 -9 20 -19z m-412 -469 c2 -7 -7 -12 -22 -12 -27 0 -35 15 -13 23 17 7 30 3 35 -11z m291 -1 c7 -5 10 -14 7 -20 -9 -14 -46 -14 -46 0 0 5 4 7 10 4 6 -3 7 1 4 9 -7 18 4 20 25 7z m216 -127 c5 -51 4 -78 -6 -95 -7 -13 -12 -29 -11 -36 2 -7 -4 -28 -12 -48 -11 -26 -23 -37 -46 -41 -23 -5 -28 -10 -20 -19 8 -10 5 -15 -12 -20 -13 -5 -24 -3 -26 4 -2 6 -8 11 -13 11 -6 0 -7 -4 -4 -10 3 -5 -3 -10 -14 -10 -14 0 -19 -5 -15 -15 6 -15 44 -21 44 -7 0 4 9 8 20 9 11 1 20 -2 20 -8 0 -5 -9 -9 -19 -9 -11 0 -23 -5 -26 -10 -11 -18 -54 -10 -106 20 -28 17 -53 29 -55 27 -5 -5 66 -61 79 -63 4 -1 10 -2 15 -3 4 -1 0 -6 -8 -11 -13 -8 -13 -10 2 -10 9 0 19 -4 23 -9 9 -16 -57 7 -87 29 -21 15 -28 17 -28 7 0 -8 16 -22 35 -32 42 -23 40 -29 -4 -14 -40 14 -62 0 -41 -26 12 -15 10 -15 -16 -9 -38 9 -51 20 -58 50 -4 14 -10 23 -15 20 -4 -3 -23 6 -41 19 -19 14 -35 25 -36 25 -1 0 2 -17 8 -37 6 -24 22 -47 43 -63 40 -30 38 -39 -3 -15 -16 10 -39 35 -52 56 -13 21 -27 36 -32 33 -4 -3 -11 10 -16 28 -7 25 -5 40 7 61 14 26 20 28 55 23 21 -4 52 -14 68 -22 32 -16 104 -12 93 6 -3 5 11 12 32 15 116 20 213 77 213 124 0 10 3 21 8 25 4 4 7 18 8 29 0 12 1 46 2 75 2 52 2 52 21 35 14 -13 21 -38 26 -89z m-596 -182 c-5 -2 -6 -8 -3 -13 4 -6 10 -6 18 0 8 7 17 6 26 -1 13 -8 12 -9 -2 -4 -12 3 -15 1 -12 -9 3 -8 13 -11 21 -8 13 5 13 3 4 -16 -7 -12 -16 -19 -21 -16 -4 3 -6 -4 -3 -15 4 -15 2 -19 -10 -15 -11 5 -14 0 -11 -22 4 -27 4 -27 -11 5 -9 18 -19 30 -24 28 -15 -10 -25 26 -26 94 l-1 65 33 -35 c17 -19 27 -37 22 -38z"/>
<path d="M716 291 c-3 -5 4 -11 16 -14 30 -8 35 -1 9 12 -11 6 -22 7 -25 2z"/>
</g>
<g id="layer103" fill="#714b34" stroke="none">
<path d="M230 1577 c19 -12 82 -47 140 -77 142 -75 142 -74 103 -234 -22 -88 -38 -133 -52 -145 -25 -22 -56 -92 -66 -149 -4 -26 -12 -42 -21 -42 -8 0 -24 -15 -35 -32 -17 -28 -20 -45 -16 -114 3 -47 12 -96 22 -117 12 -25 15 -49 11 -74 -3 -21 -9 -69 -12 -108 -4 -38 -11 -73 -17 -76 -6 -4 -1 -19 11 -37 l22 -30 -23 -15 c-19 -13 -20 -18 -9 -36 7 -12 10 -25 8 -30 -3 -4 -1 -25 5 -45 7 -26 15 -36 24 -32 8 3 18 0 22 -7 14 -22 140 -96 169 -99 16 -2 31 -6 34 -10 3 -4 23 -3 45 2 29 7 52 5 83 -6 38 -12 46 -12 72 1 16 8 38 15 50 15 11 0 20 7 20 15 0 17 31 51 70 76 23 15 42 43 89 137 45 88 48 104 43 205 -4 90 -3 100 16 113 11 7 27 35 36 61 17 50 22 153 7 153 -5 0 -12 9 -16 20 -3 11 -20 28 -37 37 l-30 18 4 105 c3 75 10 115 23 140 24 46 84 99 112 100 13 0 28 9 35 20 7 11 18 20 25 20 7 0 13 4 13 8 0 4 17 14 38 21 20 8 48 21 61 30 14 9 39 21 55 26 l31 10 3 103 3 102 -257 0 -256 0 63 -68 c35 -37 81 -94 103 -127 21 -33 48 -73 59 -89 14 -21 17 -31 8 -34 -7 -2 -21 -13 -31 -25 -11 -11 -21 -19 -23 -16 -2 2 -23 38 -46 80 -51 90 -149 192 -235 243 -50 30 -69 36 -116 36 -47 0 -64 -5 -98 -30 -42 -30 -49 -45 -54 -110 l-3 -35 -14 24 c-7 14 -16 53 -19 88 l-5 63 -141 0 -141 0 35 -23z m1106 -122 c-9 -14 -21 -25 -26 -25 -6 0 -10 -7 -10 -15 0 -8 -7 -15 -16 -15 -13 0 -11 6 7 33 38 56 81 78 45 22z m-666 -187 c0 -4 9 -5 20 -3 22 4 27 -10 8 -19 -7 -3 -1 -4 14 -1 14 3 28 1 30 -3 2 -5 17 -15 33 -23 17 -9 29 -22 29 -32 -1 -12 6 -17 27 -17 28 0 47 -16 34 -28 -4 -4 -10 -1 -12 6 -4 9 -12 3 -23 -16 -15 -24 -23 -29 -45 -25 -14 3 -24 8 -21 10 10 10 -25 35 -40 29 -23 -9 -37 35 -16 53 16 13 15 13 -2 7 -10 -3 -26 -1 -34 6 -12 10 -11 6 2 -14 10 -16 14 -28 8 -28 -6 0 -12 6 -15 13 -3 9 -7 9 -20 -2 -15 -12 -17 -11 -17 5 0 16 -2 17 -10 4 -8 -12 -10 -10 -10 8 0 21 -2 22 -15 8 -8 -8 -15 -20 -15 -27 0 -7 -3 -9 -6 -6 -10 9 -65 -33 -59 -44 4 -5 0 -9 -9 -9 -8 0 -17 -6 -20 -12 -3 -7 -4 -4 -3 7 1 12 -3 19 -11 17 -9 -1 -8 5 4 23 9 14 21 25 26 25 6 0 8 7 4 15 -3 8 -2 14 3 12 5 -1 24 12 42 28 19 17 41 29 51 27 9 -2 19 1 22 7 7 11 46 11 46 -1z m240 -157 c16 -30 12 -36 -10 -16 -21 19 -26 35 -10 35 5 0 14 -9 20 -19z m-410 -473 c0 -5 -11 -8 -25 -8 -29 0 -35 26 -7 32 16 4 32 -8 32 -24z m510 -145 c0 -51 -4 -93 -8 -93 -4 0 -8 -9 -9 -21 -3 -34 -38 -84 -62 -87 -16 -3 -21 -8 -16 -19 3 -9 0 -20 -7 -25 -11 -6 -11 -8 0 -8 10 0 10 -5 2 -20 -7 -13 -21 -20 -40 -20 -30 0 -48 -14 -30 -25 16 -10 2 -25 -23 -25 -13 0 -39 8 -60 19 -47 24 -38 7 11 -20 34 -18 35 -19 8 -14 -15 3 -42 9 -60 12 -30 5 -30 5 -11 -12 16 -13 17 -16 3 -11 -12 3 -15 1 -11 -10 7 -19 0 -18 -49 7 -22 11 -42 28 -45 37 -4 15 -53 47 -53 35 0 -11 44 -78 60 -91 13 -10 12 -11 -5 -5 -36 11 -75 44 -91 75 -8 16 -18 27 -21 24 -3 -3 4 -21 15 -41 12 -19 18 -35 14 -35 -9 0 -62 66 -62 78 0 5 -7 9 -15 9 -18 0 -20 -17 -2 -17 6 0 4 -5 -7 -11 -20 -12 -34 0 -37 31 -1 8 -5 2 -8 -15 l-7 -30 -14 43 c-10 30 -18 41 -28 37 -12 -5 -14 5 -8 64 5 45 3 71 -3 76 -6 3 -11 38 -10 78 l1 72 12 -58 c22 -104 75 -147 184 -154 44 -2 76 -10 92 -22 26 -18 60 -15 75 8 3 6 17 11 31 11 43 0 148 31 172 50 32 27 49 74 56 160 4 41 9 88 12 104 l6 28 24 -38 c20 -34 23 -52 24 -131z m-202 144 c24 -1 12 -15 -19 -22 -35 -8 -44 -3 -35 21 4 11 12 14 24 9 9 -4 23 -8 30 -8z m-290 -66 c4 -11 -3 -12 -34 -6 -64 11 -76 25 -20 23 31 -2 51 -8 54 -17z m267 -12 c-55 -11 -85 -11 -85 1 0 6 27 10 63 9 59 -1 60 -2 22 -10z"/>
<path d="M840 240 c19 -13 30 -13 30 0 0 6 -10 10 -22 10 -19 0 -20 -2 -8 -10z"/>
<path d="M790 178 c-13 -8 -12 -9 2 -5 9 3 19 1 21 -6 2 -7 7 -9 11 -6 13 12 -19 28 -34 17z"/>
</g>
<g id="layer104" fill="#f90f39" stroke="none">
<path d="M230 1577 c19 -12 82 -47 140 -77 142 -75 142 -74 103 -234 -22 -88 -38 -133 -52 -145 -25 -22 -56 -92 -66 -149 -4 -26 -12 -42 -21 -42 -8 0 -24 -15 -35 -32 -17 -28 -20 -45 -16 -114 3 -47 12 -96 22 -117 12 -25 15 -49 11 -74 -3 -21 -9 -69 -12 -108 -4 -38 -11 -73 -17 -76 -6 -4 -1 -19 11 -37 l22 -30 -23 -15 c-19 -13 -20 -18 -9 -36 7 -12 10 -25 8 -30 -3 -4 -1 -25 5 -45 7 -26 15 -36 24 -32 8 3 18 0 22 -7 14 -22 140 -96 169 -99 16 -2 31 -6 34 -10 3 -4 23 -3 45 2 29 7 52 5 83 -6 38 -12 46 -12 72 1 16 8 38 15 50 15 11 0 20 7 20 15 0 17 31 51 70 76 23 15 42 43 89 137 45 88 48 104 43 205 -4 90 -3 100 16 113 11 7 27 35 36 61 17 50 22 153 7 153 -5 0 -12 9 -16 20 -3 11 -20 28 -37 37 l-30 18 4 105 c3 75 10 115 23 140 24 46 84 99 112 100 13 0 28 9 35 20 7 11 18 20 25 20 7 0 13 4 13 8 0 4 17 14 38 21 20 8 48 21 61 30 14 9 39 21 55 26 l31 10 3 103 3 102 -257 0 -257 0 74 -78 c41 -42 97 -114 125 -158 l51 -80 -31 -19 c-17 -11 -34 -21 -37 -23 -3 -1 -28 36 -55 84 -55 99 -162 206 -246 248 -70 35 -148 36 -175 3 -10 -13 -23 -22 -29 -20 -19 6 -43 -42 -46 -93 l-3 -49 -16 35 c-9 20 -19 61 -23 93 l-7 57 -137 0 -137 0 35 -23z m1120 -92 c0 -4 -7 -19 -15 -35 -15 -29 -115 -113 -124 -104 -3 2 16 26 41 52 25 26 51 57 57 70 10 19 41 32 41 17z m-638 -209 c10 -1 21 -5 24 -9 4 -4 16 -7 27 -7 13 0 59 -39 119 -101 l99 -100 -2 -132 c-2 -73 -5 -143 -9 -157 -5 -23 -7 -21 -17 18 -6 23 -9 53 -6 65 3 15 2 18 -5 9 -7 -10 -13 -7 -25 12 -10 14 -17 30 -17 36 0 6 -5 8 -10 5 -14 -9 -13 8 2 23 6 6 8 15 4 19 -4 4 -10 2 -14 -4 -4 -7 -7 13 -6 43 1 45 -1 54 -14 49 -11 -4 -13 0 -9 15 5 21 -7 28 -18 10 -9 -14 -55 -8 -55 7 0 7 -6 10 -14 7 -10 -4 -16 5 -21 26 -6 27 -9 29 -19 15 -10 -14 -13 -14 -31 0 -11 9 -14 13 -6 9 9 -5 12 -3 7 5 -4 6 -11 9 -16 6 -5 -3 -19 -1 -30 5 -13 7 -20 7 -20 0 0 -5 5 -10 11 -10 6 0 9 -5 7 -11 -4 -13 -23 -13 -24 1 -1 6 -2 15 -3 20 -1 11 -41 -8 -53 -25 -5 -6 -8 -5 -8 3 0 10 -4 10 -20 0 -11 -7 -20 -18 -20 -24 0 -6 -13 -17 -30 -24 -16 -7 -30 -16 -30 -21 0 -5 -7 -6 -16 -2 -13 5 -15 2 -9 -16 3 -12 3 -21 -2 -20 -20 3 -27 -2 -13 -11 13 -8 12 -10 -2 -10 -10 0 -18 -7 -18 -15 0 -8 -5 -15 -11 -15 -21 0 -1 73 36 125 19 28 35 55 35 59 0 4 9 16 20 28 10 12 17 26 13 31 -3 6 -2 7 4 4 6 -4 21 5 34 20 36 38 77 54 124 47 22 -4 48 -7 57 -8z m-57 -236 c21 -23 10 -30 -42 -27 -38 2 -39 4 -16 29 21 23 36 23 58 -2z m205 -18 c0 -13 -12 -22 -22 -16 -10 6 -1 24 13 24 5 0 9 -4 9 -8z m-243 -66 c4 -3 -14 -6 -38 -7 l-44 0 42 -19 c33 -15 40 -23 36 -39 -3 -11 -12 -22 -20 -25 -28 -11 -103 60 -103 97 0 10 13 12 61 6 33 -4 63 -10 66 -13z m159 -20 c-14 -55 -146 -87 -146 -35 0 10 6 20 13 20 6 1 23 2 37 3 14 0 32 5 40 11 12 8 8 11 -20 17 -32 6 -31 6 12 5 26 0 50 2 54 6 12 12 17 -1 10 -27z m-410 -52 c-8 -27 -15 -43 -15 -35 -1 18 21 92 26 87 2 -2 -2 -26 -11 -52z m306 -43 c2 7 10 9 17 5 9 -6 8 -11 -6 -22 -26 -20 -38 -17 -51 11 -12 25 -11 25 12 10 18 -12 25 -13 28 -4z m315 -198 c12 -10 18 -38 22 -117 5 -90 3 -111 -14 -155 -12 -28 -31 -63 -43 -78 -12 -15 -28 -43 -34 -60 -7 -18 -18 -33 -25 -33 -8 0 -30 -16 -50 -36 -37 -37 -52 -40 -123 -19 -24 7 -24 7 -5 -8 13 -11 15 -16 6 -17 -8 0 -11 -6 -7 -16 3 -8 2 -13 -3 -9 -5 3 -24 7 -41 9 -21 2 -42 16 -65 42 -19 21 -37 35 -40 32 -4 -3 11 -25 32 -49 35 -39 36 -42 13 -35 -14 4 -38 9 -53 10 -15 2 -44 18 -64 37 -21 19 -31 26 -24 17 11 -15 9 -16 -16 -14 -20 2 -33 12 -46 37 -18 32 -19 33 -14 6 3 -22 2 -25 -9 -16 -8 6 -14 17 -14 23 0 6 -11 24 -24 39 -13 15 -23 33 -22 40 1 7 6 27 10 45 5 20 4 38 -3 46 -15 17 -16 159 -2 183 8 14 10 6 11 -41 0 -40 6 -70 21 -95 32 -57 62 -73 143 -79 39 -2 89 -13 110 -23 34 -16 42 -17 55 -5 9 7 44 18 79 24 76 13 161 57 173 91 5 13 12 49 14 80 7 85 13 133 21 171 7 31 8 32 12 10 2 -14 11 -31 19 -37z m-559 15 c9 -9 15 -9 24 0 19 19 45 14 51 -9 5 -20 3 -20 -51 -15 -31 3 -58 5 -59 5 -1 1 0 8 3 16 7 18 16 19 32 3z m372 -17 c0 -5 10 -7 21 -4 16 4 20 2 17 -8 -3 -9 -22 -15 -50 -17 -43 -3 -46 -1 -41 17 3 14 14 21 29 21 13 0 24 -4 24 -9z m-79 -41 c15 0 29 -7 33 -16 5 -12 16 -15 41 -12 24 3 32 1 24 -7 -5 -5 -40 -10 -77 -10 -57 0 -67 3 -67 17 0 10 -6 23 -13 30 -20 20 -13 30 10 14 12 -9 34 -16 49 -16z m-186 10 c18 -7 18 -9 3 -15 -10 -4 -14 -13 -11 -22 5 -14 -1 -15 -48 -9 -50 7 -107 32 -96 42 2 3 16 0 31 -6 34 -13 69 -13 61 -1 -3 5 3 12 12 14 25 7 26 7 48 -3z"/>
</g>
<g id="layer105" fill="#b34249" stroke="none">
<path d="M230 1577 c19 -12 82 -47 140 -77 142 -75 142 -74 103 -234 -22 -88 -38 -133 -52 -145 -25 -22 -56 -92 -66 -149 -4 -26 -12 -42 -21 -42 -8 0 -24 -15 -35 -32 -17 -28 -20 -45 -16 -114 3 -47 12 -96 22 -117 12 -25 15 -49 11 -74 -3 -21 -9 -69 -12 -108 -4 -38 -11 -73 -17 -76 -6 -4 -1 -19 11 -37 l22 -30 -23 -15 c-19 -13 -20 -18 -9 -36 7 -12 10 -25 8 -30 -3 -4 -1 -25 5 -45 7 -26 15 -36 24 -32 8 3 18 0 22 -7 14 -22 140 -96 169 -99 16 -2 31 -6 34 -10 3 -4 23 -3 45 2 29 7 52 5 83 -6 38 -12 46 -12 72 1 16 8 38 15 50 15 11 0 20 7 20 15 0 17 31 51 70 76 23 15 42 43 89 137 45 88 48 104 43 205 -4 90 -3 100 16 113 11 7 27 35 36 61 17 50 22 153 7 153 -5 0 -12 9 -16 20 -3 11 -20 28 -37 37 l-30 18 4 105 c3 75 10 115 23 140 24 46 84 99 112 100 13 0 28 9 35 20 7 11 18 20 25 20 7 0 13 4 13 8 0 4 17 14 38 21 20 8 48 21 61 30 14 9 38 21 55 26 16 6 31 15 33 22 5 14 -69 -13 -109 -41 -16 -10 -34 -16 -43 -13 -8 4 -17 2 -20 -4 -4 -5 -10 -7 -15 -4 -4 3 -18 -11 -30 -30 -12 -19 -30 -35 -39 -35 -10 0 -30 -9 -44 -20 -14 -11 -27 -20 -30 -20 -2 0 -26 39 -53 86 -55 99 -162 206 -246 248 -72 36 -148 36 -176 1 -11 -13 -23 -21 -26 -17 -16 16 -46 -44 -46 -92 l0 -49 -22 20 c-34 30 -136 93 -152 93 -8 0 -37 16 -65 35 -28 19 -59 35 -68 35 -12 0 -6 -7 17 -23z m482 -301 c10 -1 21 -5 24 -9 4 -4 16 -7 27 -7 13 0 59 -39 119 -101 l99 -100 -2 -132 c-2 -73 -5 -143 -9 -157 -5 -23 -7 -21 -17 18 -6 23 -9 53 -6 65 3 15 2 18 -5 9 -7 -10 -13 -7 -25 12 -10 14 -17 30 -17 36 0 6 -5 8 -10 5 -14 -9 -13 8 2 23 6 6 8 15 4 19 -4 4 -10 2 -14 -4 -4 -7 -7 13 -6 43 1 45 -1 54 -14 49 -11 -4 -13 0 -9 15 5 21 -7 28 -18 10 -9 -14 -55 -8 -55 7 0 7 -6 10 -14 7 -10 -4 -16 5 -21 26 -6 27 -9 29 -19 15 -10 -14 -13 -14 -31 0 -11 9 -14 13 -6 9 9 -5 12 -3 7 5 -4 6 -11 9 -16 6 -5 -3 -19 -1 -30 5 -13 7 -20 7 -20 0 0 -5 5 -10 11 -10 6 0 9 -5 7 -11 -4 -13 -23 -13 -24 1 -1 6 -2 15 -3 20 -1 11 -41 -8 -53 -25 -5 -6 -8 -5 -8 3 0 10 -4 10 -20 0 -11 -7 -20 -18 -20 -24 0 -6 -13 -17 -30 -24 -16 -7 -30 -16 -30 -21 0 -5 -7 -6 -16 -2 -13 5 -15 2 -9 -16 3 -12 3 -21 -2 -20 -20 3 -27 -2 -13 -11 13 -8 12 -10 -2 -10 -10 0 -18 -7 -18 -15 0 -8 -5 -15 -11 -15 -21 0 -1 73 36 125 19 28 35 55 35 59 0 4 9 16 20 28 10 12 17 26 13 31 -3 6 -2 7 4 4 6 -4 21 5 34 20 36 38 77 54 124 47 22 -4 48 -7 57 -8z m-57 -236 c21 -23 10 -30 -42 -27 -38 2 -39 4 -16 29 21 23 36 23 58 -2z m205 -18 c0 -13 -12 -22 -22 -16 -10 6 -1 24 13 24 5 0 9 -4 9 -8z m-243 -66 c4 -3 -14 -6 -38 -7 l-44 0 42 -19 c33 -15 40 -23 36 -39 -3 -11 -12 -22 -20 -25 -28 -11 -103 60 -103 97 0 10 13 12 61 6 33 -4 63 -10 66 -13z m159 -20 c-14 -55 -146 -87 -146 -35 0 10 6 20 13 20 6 1 23 2 37 3 14 0 32 5 40 11 12 8 8 11 -20 17 -32 6 -31 6 12 5 26 0 50 2 54 6 12 12 17 -1 10 -27z m-410 -52 c-8 -27 -15 -43 -15 -35 -1 18 21 92 26 87 2 -2 -2 -26 -11 -52z m306 -43 c2 7 10 9 17 5 9 -6 8 -11 -6 -22 -26 -20 -38 -17 -51 11 -12 25 -11 25 12 10 18 -12 25 -13 28 -4z m315 -198 c12 -10 18 -38 22 -117 5 -90 3 -111 -14 -155 -12 -28 -31 -63 -43 -78 -12 -15 -28 -43 -34 -60 -7 -18 -18 -33 -25 -33 -8 0 -30 -16 -50 -36 -37 -37 -52 -40 -123 -19 -24 7 -24 7 -5 -8 13 -11 15 -16 6 -17 -8 0 -11 -6 -7 -16 3 -8 2 -13 -3 -9 -5 3 -24 7 -41 9 -21 2 -42 16 -65 42 -19 21 -37 35 -40 32 -4 -3 11 -25 32 -49 35 -39 36 -42 13 -35 -14 4 -38 9 -53 10 -15 2 -44 18 -64 37 -21 19 -31 26 -24 17 11 -15 9 -16 -16 -14 -20 2 -33 12 -46 37 -18 32 -19 33 -14 6 3 -22 2 -25 -9 -16 -8 6 -14 17 -14 23 0 6 -11 24 -24 39 -13 15 -23 33 -22 40 1 7 6 27 10 45 5 20 4 38 -3 46 -15 17 -16 159 -2 183 8 14 10 6 11 -41 0 -40 6 -70 21 -95 32 -57 62 -73 143 -79 39 -2 89 -13 110 -23 34 -16 42 -17 55 -5 9 7 44 18 79 24 76 13 161 57 173 91 5 13 12 49 14 80 7 85 13 133 21 171 7 31 8 32 12 10 2 -14 11 -31 19 -37z m-559 15 c9 -9 15 -9 24 0 19 19 45 14 51 -9 5 -20 3 -20 -51 -15 -31 3 -58 5 -59 5 -1 1 0 8 3 16 7 18 16 19 32 3z m372 -17 c0 -5 10 -7 21 -4 16 4 20 2 17 -8 -3 -9 -22 -15 -50 -17 -43 -3 -46 -1 -41 17 3 14 14 21 29 21 13 0 24 -4 24 -9z m-79 -41 c15 0 29 -7 33 -16 5 -12 16 -15 41 -12 24 3 32 1 24 -7 -5 -5 -40 -10 -77 -10 -57 0 -67 3 -67 17 0 10 -6 23 -13 30 -20 20 -13 30 10 14 12 -9 34 -16 49 -16z m-186 10 c18 -7 18 -9 3 -15 -10 -4 -14 -13 -11 -22 5 -14 -1 -15 -48 -9 -50 7 -107 32 -96 42 2 3 16 0 31 -6 34 -13 69 -13 61 -1 -3 5 3 12 12 14 25 7 26 7 48 -3z"/>
</g>
<g id="layer106" fill="#a47159" stroke="none">
<path d="M230 1577 c19 -12 82 -47 140 -77 142 -75 142 -74 103 -234 -22 -88 -38 -133 -52 -145 -25 -22 -56 -92 -66 -149 -4 -26 -12 -42 -21 -42 -8 0 -24 -15 -35 -32 -17 -28 -20 -45 -16 -114 3 -47 12 -96 22 -117 12 -25 15 -49 11 -74 -3 -21 -9 -69 -12 -108 -4 -38 -11 -73 -17 -76 -6 -4 -1 -19 11 -37 l22 -30 -23 -15 c-19 -13 -20 -18 -9 -36 7 -12 10 -25 8 -30 -3 -4 -1 -25 5 -45 7 -26 15 -36 24 -32 8 3 18 0 22 -7 14 -22 140 -96 169 -99 16 -2 31 -6 34 -10 3 -4 23 -3 45 2 29 7 52 5 83 -6 38 -12 46 -12 72 1 16 8 38 15 50 15 11 0 20 7 20 15 0 17 31 51 70 76 23 15 42 43 89 137 45 88 48 104 43 205 -4 90 -3 100 16 113 11 7 27 35 36 61 17 50 22 153 7 153 -5 0 -12 9 -16 20 -3 11 -20 28 -37 37 l-30 18 4 105 c3 75 10 115 23 140 24 46 84 99 112 100 13 0 28 9 35 20 7 11 18 20 25 20 7 0 13 4 13 8 0 4 17 14 38 21 20 8 48 21 61 30 14 9 38 21 55 26 16 6 31 15 33 22 5 15 -72 -13 -106 -39 -12 -9 -39 -20 -58 -24 -21 -4 -42 -17 -55 -35 -12 -16 -29 -29 -39 -29 -9 0 -28 -9 -42 -20 -14 -11 -27 -20 -30 -20 -2 0 -26 39 -53 86 -55 99 -162 206 -246 248 -72 36 -148 36 -176 1 -11 -13 -23 -21 -26 -17 -16 15 -46 -44 -46 -90 l0 -48 -45 34 c-24 19 -74 48 -111 66 -37 17 -82 42 -99 56 -18 13 -40 24 -51 24 -14 0 -10 -6 16 -23z m482 -301 c10 -1 21 -5 24 -9 4 -4 16 -7 27 -7 13 0 59 -39 119 -101 l99 -100 -2 -132 c-2 -73 -5 -143 -9 -157 -5 -23 -7 -21 -17 18 -6 23 -9 53 -6 65 3 15 2 18 -5 9 -7 -10 -13 -7 -25 12 -10 14 -17 30 -17 36 0 6 -5 8 -10 5 -14 -9 -13 8 2 23 6 6 8 15 4 19 -4 4 -10 2 -14 -4 -4 -7 -7 13 -6 43 1 45 -1 54 -14 49 -11 -4 -13 0 -9 15 5 21 -7 28 -18 10 -9 -14 -55 -8 -55 7 0 7 -6 10 -14 7 -10 -4 -16 5 -21 26 -6 27 -9 29 -19 15 -10 -14 -13 -14 -31 0 -11 9 -14 13 -6 9 9 -5 12 -3 7 5 -4 6 -11 9 -16 6 -5 -3 -19 -1 -30 5 -13 7 -20 7 -20 0 0 -5 5 -10 11 -10 6 0 9 -5 7 -11 -4 -13 -23 -13 -24 1 -1 6 -2 15 -3 20 -1 11 -41 -8 -53 -25 -5 -6 -8 -5 -8 3 0 10 -4 10 -20 0 -11 -7 -20 -18 -20 -24 0 -6 -13 -17 -30 -24 -16 -7 -30 -16 -30 -21 0 -5 -7 -6 -16 -2 -13 5 -15 2 -9 -16 3 -12 3 -21 -2 -20 -20 3 -27 -2 -13 -11 13 -8 12 -10 -2 -10 -10 0 -18 -7 -18 -15 0 -8 -5 -15 -11 -15 -21 0 -1 73 36 125 19 28 35 55 35 59 0 4 9 16 20 28 10 12 17 26 13 31 -3 6 -2 7 4 4 6 -4 21 5 34 20 36 38 77 54 124 47 22 -4 48 -7 57 -8z m-57 -236 c21 -23 10 -30 -42 -27 -38 2 -39 4 -16 29 21 23 36 23 58 -2z m205 -18 c0 -13 -12 -22 -22 -16 -10 6 -1 24 13 24 5 0 9 -4 9 -8z m-203 -66 c4 -3 -23 -6 -58 -7 l-64 0 42 -19 c33 -15 40 -23 36 -39 -3 -11 -12 -22 -20 -25 -28 -11 -103 60 -103 97 0 10 17 11 81 6 44 -4 83 -10 86 -13z m119 -20 c-14 -55 -146 -87 -146 -35 0 10 6 20 13 20 6 1 23 2 37 3 14 0 32 5 40 11 12 8 8 11 -20 17 -32 6 -31 6 12 5 26 0 50 2 54 6 12 12 17 -1 10 -27z m-410 -52 c-8 -27 -15 -43 -15 -35 -1 18 21 92 26 87 2 -2 -2 -26 -11 -52z m306 -43 c2 7 10 9 17 5 9 -6 8 -11 -6 -22 -26 -20 -38 -17 -51 11 -12 25 -11 25 12 10 18 -12 25 -13 28 -4z m315 -198 c12 -10 18 -38 22 -117 5 -90 3 -111 -14 -155 -12 -28 -31 -63 -43 -78 -12 -15 -28 -43 -34 -60 -7 -18 -18 -33 -25 -33 -8 0 -30 -16 -50 -36 -37 -37 -52 -40 -123 -19 -24 7 -24 7 -5 -8 13 -11 15 -16 6 -17 -8 0 -11 -6 -7 -16 3 -8 2 -13 -3 -9 -5 3 -24 7 -41 9 -21 2 -42 16 -65 42 -19 21 -37 35 -40 32 -4 -3 11 -25 32 -49 35 -39 36 -42 13 -35 -14 4 -38 9 -53 10 -15 2 -44 18 -64 37 -21 19 -31 26 -24 17 11 -15 9 -16 -16 -14 -20 2 -33 12 -46 37 -18 32 -19 33 -14 6 3 -22 2 -25 -9 -16 -8 6 -14 17 -14 23 0 6 -11 24 -24 39 -13 15 -23 33 -22 40 1 7 6 27 10 45 5 20 4 38 -3 46 -15 17 -16 159 -2 183 8 14 10 6 11 -41 0 -40 6 -70 21 -95 32 -57 62 -73 143 -79 39 -2 89 -13 110 -23 34 -16 42 -17 55 -5 9 7 44 18 79 24 76 13 161 57 173 91 5 13 12 49 14 80 7 85 13 133 21 171 7 31 8 32 12 10 2 -14 11 -31 19 -37z m-559 15 c9 -9 15 -9 24 0 19 19 45 14 51 -9 5 -20 3 -20 -51 -15 -31 3 -58 5 -59 5 -1 1 0 8 3 16 7 18 16 19 32 3z m372 -17 c0 -5 10 -7 21 -4 16 4 20 2 17 -8 -3 -9 -22 -15 -50 -17 -43 -3 -46 -1 -41 17 3 14 14 21 29 21 13 0 24 -4 24 -9z m-79 -41 c15 0 29 -7 33 -16 5 -12 16 -15 41 -12 24 3 32 1 24 -7 -5 -5 -40 -10 -77 -10 -57 0 -67 3 -67 17 0 10 -6 23 -13 30 -20 20 -13 30 10 14 12 -9 34 -16 49 -16z m-186 10 c18 -7 18 -9 3 -15 -10 -4 -14 -13 -11 -22 5 -14 -1 -15 -48 -9 -50 7 -107 32 -96 42 2 3 16 0 31 -6 34 -13 69 -13 61 -1 -3 5 3 12 12 14 25 7 26 7 48 -3z"/>
<path d="M760 156 c14 -9 32 -15 40 -15 13 0 13 1 0 8 -8 5 -26 12 -40 15 l-25 7 25 -15z"/>
</g>
<g id="layer107" fill="#e77b91" stroke="none">
<path d="M230 1577 c19 -12 82 -47 140 -77 142 -75 142 -74 103 -234 -22 -88 -38 -133 -52 -145 -25 -22 -56 -92 -66 -149 -4 -26 -12 -42 -21 -42 -8 0 -24 -15 -35 -32 -17 -28 -20 -45 -16 -114 3 -44 12 -96 20 -115 9 -19 18 -43 20 -54 4 -15 5 -13 6 7 0 15 5 29 9 32 4 2 6 -41 5 -97 -3 -91 -1 -106 19 -141 33 -57 72 -76 180 -88 115 -12 110 -12 183 0 104 18 194 68 195 110 0 21 -19 13 -34 -15 -13 -24 -15 -25 -17 -8 -1 11 -1 23 0 28 0 4 -3 7 -8 7 -5 0 -7 8 -5 18 2 9 5 34 8 54 l4 37 -52 -4 c-28 -3 -67 -7 -87 -11 -26 -4 -42 0 -58 13 -20 17 -23 28 -24 98 0 44 3 91 7 105 6 20 2 32 -20 55 l-27 29 -17 -22 c-15 -19 -20 -20 -30 -7 -7 8 -10 22 -6 30 4 10 -7 25 -33 43 -60 42 -78 133 -21 102 24 -13 62 -18 187 -24 60 -2 76 0 93 16 21 19 27 48 11 48 -5 0 -12 8 -15 18 -7 20 -59 40 -88 34 -23 -5 -32 -34 -13 -44 8 -5 15 -16 15 -24 0 -12 -12 -15 -52 -13 -66 3 -81 12 -66 44 8 19 7 27 -6 40 -15 16 -19 15 -55 -18 -21 -19 -44 -36 -50 -38 -7 -3 -13 -12 -15 -21 -1 -10 -5 -21 -9 -24 -4 -4 -7 -16 -7 -27 0 -11 -7 -29 -16 -39 -15 -16 -15 -18 0 -24 9 -3 13 -11 9 -18 -4 -6 -8 -17 -10 -25 -1 -8 -6 -17 -11 -20 -5 -3 -14 -15 -20 -26 -11 -19 -11 -19 -12 5 l-1 25 -12 -25 c-10 -24 -11 -23 -17 20 -3 28 -1 53 7 65 7 11 19 50 26 86 9 41 26 83 49 116 49 71 106 284 86 321 -14 28 -87 78 -160 110 -26 11 -63 32 -81 46 -19 14 -42 26 -53 26 -14 0 -10 -6 16 -23z m110 -822 c0 -9 -6 -12 -15 -9 -8 4 -12 10 -9 15 8 14 24 10 24 -6z m0 -30 c0 -1 -7 -8 -15 -15 -13 -10 -15 -9 -15 8 0 15 5 20 15 16 8 -4 15 -7 15 -9z m90 -46 c0 -22 11 -24 27 -8 9 9 18 8 36 -3 16 -11 28 -13 40 -6 11 6 17 5 17 -2 0 -5 -5 -10 -12 -10 -6 0 -8 -3 -5 -6 11 -11 37 17 37 39 0 27 13 13 16 -16 2 -32 -25 -96 -46 -107 -19 -10 -120 4 -152 21 -22 12 -29 99 -9 115 20 16 51 5 51 -17z"/>
<path d="M1294 1558 c7 -41 20 -67 30 -57 2 2 7 25 11 52 7 46 7 47 -20 47 -27 0 -27 -1 -21 -42z"/>
<path d="M1354 1401 c-23 -9 -48 -22 -56 -28 -8 -7 -35 -20 -59 -28 -24 -9 -56 -29 -71 -45 -15 -17 -34 -30 -42 -30 -8 0 -17 -4 -20 -8 -3 -5 9 -6 25 -4 17 2 36 13 42 23 7 11 17 19 24 19 7 0 13 4 13 8 0 4 17 14 38 21 20 8 49 22 64 32 14 11 32 19 40 19 16 0 55 26 48 32 -3 3 -23 -3 -46 -11z"/>
</g>
<g id="layer108" fill="#d4a18d" stroke="none">
<path d="M230 1577 c19 -12 82 -47 140 -77 142 -75 142 -74 103 -234 -22 -88 -38 -133 -52 -145 -25 -22 -56 -92 -66 -149 -4 -26 -12 -42 -21 -42 -8 0 -24 -15 -35 -32 -17 -28 -20 -45 -16 -114 3 -44 12 -96 20 -115 9 -19 18 -43 20 -54 4 -15 5 -13 6 7 0 15 5 29 9 32 4 2 6 -41 5 -97 -3 -91 -1 -106 19 -141 33 -57 72 -76 180 -88 115 -12 110 -12 183 0 104 18 194 68 195 110 0 21 -19 13 -34 -15 -13 -24 -15 -25 -17 -8 -1 11 -1 23 0 28 0 4 -3 7 -8 7 -5 0 -7 8 -5 18 2 9 5 34 8 54 l4 37 -52 -4 c-28 -3 -67 -7 -87 -11 -26 -4 -42 0 -58 13 -20 17 -23 28 -24 98 0 44 3 91 7 105 6 20 2 32 -20 55 l-27 29 -17 -22 c-15 -19 -20 -20 -30 -7 -7 8 -10 22 -6 30 4 10 -7 25 -33 43 -40 28 -65 79 -51 103 7 10 13 10 32 -2 14 -8 50 -14 90 -14 36 0 65 -2 63 -5 -2 -3 21 -5 51 -5 36 0 60 6 74 18 21 17 27 47 11 47 -5 0 -12 8 -15 18 -7 20 -59 40 -88 34 -23 -5 -32 -34 -13 -44 8 -5 15 -16 15 -24 0 -12 -12 -15 -52 -13 -66 3 -81 12 -66 44 8 19 7 27 -6 40 -15 16 -19 15 -55 -18 -21 -19 -44 -36 -50 -38 -7 -3 -13 -12 -15 -21 -1 -10 -5 -21 -9 -24 -4 -4 -7 -16 -7 -27 0 -11 -7 -29 -16 -39 -15 -16 -15 -18 0 -24 9 -3 13 -11 9 -18 -4 -6 -8 -17 -10 -25 -1 -8 -6 -17 -11 -20 -5 -3 -14 -15 -20 -26 -11 -19 -11 -19 -12 5 l-1 25 -12 -25 c-10 -24 -11 -23 -17 20 -3 28 -1 53 7 65 7 11 19 50 26 86 9 41 26 83 49 116 25 36 44 84 66 170 18 66 32 124 32 130 0 20 -76 79 -145 112 -39 19 -89 47 -112 62 -23 16 -48 29 -55 29 -7 0 3 -10 22 -23z m110 -822 c0 -9 -6 -12 -15 -9 -8 4 -12 10 -9 15 8 14 24 10 24 -6z m0 -30 c0 -1 -7 -8 -15 -15 -13 -10 -15 -9 -15 8 0 15 5 20 15 16 8 -4 15 -7 15 -9z m90 -46 c0 -22 11 -24 27 -8 9 9 18 8 36 -3 16 -11 28 -13 40 -6 11 6 17 5 17 -2 0 -5 -5 -10 -12 -10 -6 0 -8 -3 -5 -6 11 -11 37 17 37 39 0 27 13 13 16 -16 2 -32 -25 -96 -46 -107 -19 -10 -120 4 -152 21 -22 12 -29 99 -9 115 20 16 51 5 51 -17z"/>
<path d="M400 620 c0 -9 39 -25 46 -18 2 3 -7 10 -21 16 -14 6 -25 7 -25 2z"/>
<path d="M609 1588 c-9 -7 -28 -53 -43 -103 -43 -139 -43 -134 -2 -92 20 20 41 37 46 37 12 0 0 -32 -16 -45 -7 -5 -14 -19 -16 -30 -2 -16 2 -19 20 -17 12 2 22 -1 22 -6 0 -6 9 -8 20 -5 11 3 26 0 34 -6 9 -7 17 -8 20 -2 3 5 15 7 26 4 11 -3 20 0 20 6 0 6 5 11 10 11 6 0 10 -7 10 -15 0 -8 25 -40 55 -70 30 -31 58 -61 62 -68 12 -18 52 -39 63 -32 6 4 10 19 10 35 0 16 7 36 16 44 12 12 12 16 2 16 -8 1 -4 8 10 19 25 22 29 63 8 100 -27 49 -161 172 -220 201 -63 32 -131 39 -157 18z"/>
<path d="M1297 1563 c10 -63 20 -72 32 -27 16 56 14 64 -13 64 -23 0 -24 -3 -19 -37z"/>
<path d="M536 1521 c-9 -16 -16 -43 -16 -58 1 -22 5 -17 20 26 22 61 20 79 -4 32z"/>
<path d="M1360 1395 c-16 -9 -19 -14 -9 -15 8 0 24 7 35 15 24 18 7 19 -26 0z"/>
<path d="M1285 1359 c-16 -10 -44 -22 -61 -25 -19 -3 -37 -15 -44 -29 -7 -13 -26 -27 -41 -30 -39 -9 -45 -22 -8 -17 17 2 36 13 42 23 7 11 17 19 24 19 7 0 13 4 13 8 0 5 17 14 38 21 21 7 49 21 62 32 32 24 14 23 -25 -2z"/>
<path d="M1020 1297 c0 -3 5 -17 11 -29 8 -19 6 -34 -12 -73 -16 -37 -23 -81 -29 -175 -5 -69 -4 -126 0 -128 5 -2 6 -10 3 -19 -4 -10 -2 -14 4 -10 5 3 10 0 10 -8 0 -8 -5 -15 -10 -15 -6 0 -2 -9 8 -20 10 -11 15 -23 12 -27 -4 -4 -14 2 -22 13 -13 18 -14 16 -15 -25 0 -24 3 -42 6 -38 3 3 18 1 32 -4 18 -7 28 -6 34 3 13 22 9 56 -8 66 -9 5 -15 15 -12 22 3 9 9 8 22 -5 18 -19 18 -21 -2 -128 -11 -60 -15 -64 -36 -32 -9 14 -21 25 -26 25 -15 0 -12 -37 4 -43 9 -4 14 -29 15 -88 3 -105 11 -118 11 -18 0 62 3 76 19 86 10 6 26 33 35 59 17 51 22 154 7 154 -5 0 -12 9 -16 20 -3 11 -20 28 -37 37 l-30 18 4 105 c5 113 19 156 67 198 14 13 20 22 12 20 -8 -2 -25 12 -38 31 -12 19 -23 31 -23 28z"/>
<path d="M620 1090 c-8 -5 -11 -12 -7 -16 4 -4 13 -2 19 4 15 15 7 24 -12 12z"/>
<path d="M809 998 c0 -2 -3 -19 -6 -38 -6 -43 -16 -56 -66 -81 -32 -17 -38 -25 -36 -47 1 -15 -2 -45 -6 -67 -5 -22 -8 -48 -7 -57 0 -10 -3 -18 -9 -18 -14 0 -11 -44 6 -66 14 -18 14 -18 15 4 0 20 3 21 20 12 16 -9 22 -8 26 5 7 18 40 20 50 3 5 -7 10 -4 16 11 6 18 11 21 21 12 10 -8 17 -7 25 1 9 9 12 8 12 -5 0 -9 7 -17 15 -17 8 0 15 5 15 11 0 6 6 9 13 6 19 -7 1 94 -19 110 -9 6 -15 14 -14 17 1 4 -1 12 -4 19 -5 9 -7 9 -12 -1 -3 -6 -10 -10 -15 -6 -5 3 -5 13 -1 22 5 9 9 31 10 49 2 26 -1 30 -18 26 -17 -5 -18 -2 -10 28 8 26 7 35 -5 42 -9 4 -13 12 -10 18 4 5 4 9 1 9 -3 0 -6 -1 -7 -2z"/>
<path d="M585 940 c-19 -8 -19 -9 2 -9 12 -1 25 -6 29 -12 4 -8 9 -8 17 0 6 6 20 11 32 12 17 1 16 2 -5 9 -33 10 -51 10 -75 0z"/>
<path d="M800 596 l-35 -10 29 -4 c16 -2 33 1 39 7 16 16 5 19 -33 7z"/>
<path d="M306 539 c-3 -17 -6 -53 -6 -79 0 -29 -5 -50 -12 -52 -8 -3 -5 -14 10 -35 l22 -31 -23 -15 c-19 -13 -20 -18 -9 -36 7 -12 10 -25 8 -30 -3 -4 -1 -25 5 -45 7 -26 15 -36 24 -32 8 3 18 0 22 -7 14 -22 140 -96 169 -99 16 -2 31 -6 34 -10 3 -4 23 -3 45 2 29 7 52 5 83 -6 38 -12 46 -12 72 1 16 8 38 15 50 15 11 0 20 7 20 15 0 17 31 51 70 76 14 9 34 34 46 55 11 22 31 56 42 77 12 21 22 43 22 50 -1 7 -8 -1 -17 -18 -9 -16 -27 -43 -39 -58 -13 -16 -24 -37 -24 -47 0 -11 -9 -24 -20 -30 -18 -10 -41 -29 -96 -81 -15 -15 -28 -18 -47 -14 -21 6 -27 4 -27 -10 0 -9 -4 -14 -9 -11 -5 4 -11 1 -13 -5 -3 -9 -9 -9 -25 0 -12 6 -46 11 -75 11 -30 0 -58 4 -63 9 -6 6 -26 13 -45 16 -46 8 -90 30 -120 60 -61 60 -71 81 -56 125 9 27 9 43 -1 73 -8 24 -12 68 -9 117 5 85 2 100 -8 49z"/>
<path d="M1013 413 c-6 -21 -10 -40 -8 -42 7 -6 26 51 23 66 -2 8 -8 -3 -15 -24z"/>
</g>


</svg>