<?xml version="1.0" encoding="iso-8859-1"?>
<!-- Generator: Adobe Illustrator 21.0.0, SVG Export Plug-In . SVG Version: 6.00 Build 0)  -->
<svg version="1.1" id="Capa_1" xmlns="http://www.w3.org/2000/svg" xmlns:xlink="http://www.w3.org/1999/xlink" x="0px" y="0px"
	 viewBox="0 0 512.485 512.485" style="enable-background:new 0 0 512.485 512.485;" xml:space="preserve">
<g transform="translate(-1)">
	<g transform="translate(1 1)">
		<path style="fill:#A4C2F7;" d="M503.951,408.391l-0.341,0.427v42.667c0,28.277-22.923,51.2-51.2,51.2H59.876
			c-28.277,0-51.2-22.923-51.2-51.2v-42.667l-0.341-0.427c24.235-19.456,64.256-33.024,98.645-45.909
			c2.304-0.853,4.608-1.707,6.827-2.56c8.875-3.328,17.237-6.571,24.747-9.899c2.475-1.138,4.864-2.247,7.168-3.328
			c5.83-2.849,11.373-6.249,16.555-10.155c27.136-21.589,27.307-60.245,26.283-75.179c-6.95-9.976-12.305-20.974-15.872-32.597
			c-1.207-4.114-1.951-8.35-2.219-12.629l-0.085-1.451c-1.773,3.723-5.44,6.178-9.557,6.4c-5.844,0.063-11.225-3.172-13.909-8.363
			c-6.481-12.45-9.959-26.243-10.155-40.277c-0.468-4.631,0.026-9.308,1.451-13.739c0.813-2.316,2.299-4.336,4.267-5.803
			C97.167,7.751,179.343,7.751,179.343,7.751h153.6c0,0,82.176,0,36.864,145.152c1.968,1.466,3.454,3.487,4.267,5.803
			c1.424,4.431,1.918,9.108,1.451,13.739c-0.196,14.034-3.674,27.828-10.155,40.277c-2.685,5.191-8.066,8.426-13.909,8.363
			c-4.118-0.222-7.784-2.677-9.557-6.4l-0.085,1.451c-0.267,4.279-1.012,8.515-2.219,12.629
			c-3.567,11.624-8.922,22.621-15.872,32.597c-1.024,14.933-0.853,53.589,26.283,75.179c5.182,3.905,10.725,7.306,16.555,10.155
			c0.439,0.235,0.895,0.434,1.365,0.597c8.875,4.352,19.285,8.448,30.549,12.629c0.341,0.085,0.512,0.256,0.853,0.341h0.085
			C435.087,373.831,478.351,387.825,503.951,408.391z"/>
		<g>
			<path style="fill:#E3E7F2;" d="M478.692,408.391l-0.341,0.427v42.667c0,28.277-22.923,51.2-51.2,51.2H59.876
				c-28.277,0-51.2-22.923-51.2-51.2v-42.667l-0.341-0.427c24.235-19.456,64.256-33.024,98.645-45.909
				c2.304-0.853,4.608-1.707,6.827-2.56c8.875-3.328,17.237-6.571,24.747-9.899c2.475-1.138,4.864-2.247,7.168-3.328
				c5.83-2.849,11.373-6.249,16.555-10.155c27.136-21.589,27.307-60.245,26.283-75.179c-6.95-9.976-12.305-20.974-15.872-32.597
				c-1.207-4.114-1.951-8.35-2.219-12.629l-0.085-1.451c-1.773,3.723-5.44,6.178-9.557,6.4c-5.844,0.063-11.225-3.172-13.909-8.363
				c-6.481-12.45-9.959-26.243-10.155-40.277c-0.468-4.631,0.026-9.308,1.451-13.739c0.813-2.316,2.299-4.336,4.267-5.803
				C97.167,7.751,179.343,7.751,179.343,7.751h128.341c0,0,82.176,0,36.864,145.152c1.968,1.466,3.454,3.487,4.267,5.803
				c1.425,4.431,1.918,9.108,1.451,13.739c-0.196,14.034-3.674,27.828-10.155,40.277c-2.685,5.191-8.066,8.426-13.909,8.363
				c-4.118-0.222-7.784-2.677-9.557-6.4l-0.085,1.451c-0.267,4.279-1.012,8.515-2.219,12.629
				c-3.567,11.624-8.922,22.621-15.872,32.597c-1.024,14.933-0.853,53.589,26.283,75.179c5.182,3.905,10.725,7.306,16.555,10.155
				c0.439,0.235,0.895,0.434,1.365,0.597c8.875,4.352,19.285,8.448,30.549,12.629c0.341,0.085,0.512,0.256,0.853,0.341h0.085
				C409.828,373.831,453.092,387.825,478.692,408.391z"/>
			<path style="fill:#E3E7F2;" d="M170.383,214.684c-1.773,3.723-5.44,6.178-9.557,6.4c-5.844,0.063-11.225-3.172-13.909-8.363
				c-6.481-12.45-9.959-26.243-10.155-40.277c-0.468-4.631,0.026-9.308,1.451-13.739c0.813-2.316,2.299-4.336,4.267-5.803
				c5.538-3.258,12.414-3.225,17.92,0.085c2.074,1.089,4.02,2.406,5.803,3.925L170.383,214.684z"/>
		</g>
		<g>
			<path style="fill:#7FABFA;" d="M375.524,172.444c-0.196,14.034-3.674,27.828-10.155,40.277
				c-2.685,5.191-8.066,8.426-13.909,8.363c-4.118-0.222-7.784-2.677-9.557-6.4l4.181-57.771c1.783-1.52,3.729-2.836,5.803-3.925
				c5.506-3.311,12.382-3.343,17.92-0.085c1.968,1.466,3.454,3.487,4.267,5.803C375.498,163.136,375.992,167.814,375.524,172.444z"
				/>
			<path style="fill:#7FABFA;" d="M367.929,347.292l-0.853,1.792c0,0-29.781,60.331-96.341,74.496
				c-9.761,2.105-19.862,2.076-29.611-0.085c-0.778-0.159-1.547-0.358-2.304-0.597h-0.256
				c-59.477-14.165-88.747-65.024-92.843-72.789l-7.083-0.085c2.475-1.109,4.779-2.219,7.083-3.328
				c5.83-2.849,11.373-6.249,16.555-10.155c13.223-11.23,21.924-26.875,24.491-44.032c1.898-10.266,2.5-20.73,1.792-31.147
				c7.206,10.539,16.186,19.75,26.539,27.221c6.939,4.968,15.06,8.028,23.552,8.875c1.975,0.315,3.974,0.458,5.973,0.427h23.04
				c7.94,0.036,15.777-1.806,22.869-5.376c2.33-1.11,4.557-2.424,6.656-3.925c10.353-7.472,19.332-16.682,26.539-27.221
				c-1.024,14.933-0.853,53.589,26.283,75.179c5.182,3.905,10.725,7.306,16.555,10.155
				C367.003,346.929,367.459,347.129,367.929,347.292z"/>
		</g>
		<g>
			<path style="fill:#E3E7F2;" d="M332.943,347.292l-0.853,1.792c0,0-28.843,58.453-93.269,73.813h-0.256
				c-59.477-14.165-88.747-65.024-92.843-72.789l-7.083-0.085c2.475-1.109,4.779-2.219,7.083-3.328
				c5.83-2.849,11.373-6.249,16.555-10.155c13.223-11.23,21.924-26.875,24.491-44.032c6.997,3.584-6.827-20.224,1.109-20.224
				l44.8,25.6c2,0.031,3.998-0.112,5.973-0.427c1.975,0.315,3.974,0.458,5.973,0.427h23.04c7.94,0.036,15.777-1.806,22.869-5.376
				c2.566,17.157,11.268,32.802,24.491,44.032c5.182,3.905,10.725,7.306,16.555,10.155
				C332.016,346.929,332.473,347.129,332.943,347.292z"/>
			<path style="fill:#E3E7F2;" d="M399.332,360.263l-0.853,2.389c-10.325,18.176-50.688,80.299-126.976,95.147
				c-10.154,1.877-20.566,1.877-30.72,0c-76.288-14.848-116.651-76.971-126.976-95.147l-6.827-0.171
				c2.304-0.853,4.608-1.707,6.827-2.56c8.875-3.328,17.237-6.571,24.747-9.899l7.168,0.085
				c4.181,7.851,34.219,60.075,95.403,73.387c9.749,2.161,19.85,2.191,29.611,0.085c66.56-14.165,96.341-74.496,96.341-74.496
				l0.853-1.792c8.875,4.352,19.285,8.448,30.549,12.629C398.82,360.007,398.991,360.177,399.332,360.263z"/>
		</g>
		<path style="fill:#7FABFA;" d="M350.009,101.617l-3.925,55.296l-4.181,57.771l-0.085,1.451c-0.267,4.279-1.012,8.515-2.219,12.629
			c-3.567,11.624-8.922,22.621-15.872,32.597c-7.206,10.539-16.186,19.75-26.539,27.221c-8.627,6.112-18.953,9.365-29.525,9.301
			h-23.04c-1.94,0.016-3.878-0.098-5.803-0.341c-8.548-0.89-16.72-3.977-23.723-8.96c-10.353-7.472-19.332-16.682-26.539-27.221
			c-6.95-9.976-12.305-20.974-15.872-32.597c-1.207-4.114-1.951-8.35-2.219-12.629l-0.085-1.451l-4.181-57.771l-3.925-55.296
			c0,0,0-23.04,18.944-31.232c4.805-2.017,9.979-3.005,15.189-2.901c8.706-0.518,17.386,1.371,25.088,5.461
			c9.696,8.056,22.053,12.196,34.645,11.605V50.417c0,0,3.157-0.512,8.277-1.024h0.085
			C288.74,47.089,357.007,45.383,350.009,101.617z"/>
		<g>
			<path style="fill:#E3E7F2;" d="M315.364,101.617l-3.925,55.296l-4.181,57.771l-0.085,1.451
				c-0.267,4.279-1.012,8.515-2.219,12.629c-3.567,11.624-8.922,22.621-15.872,32.597c-7.206,10.539-16.186,19.75-26.539,27.221
				c-7.002,4.983-15.175,8.07-23.723,8.96c-8.548-0.89-16.72-3.977-23.723-8.96c-10.353-7.472-19.332-16.682-26.539-27.221
				c-6.95-9.976-12.305-20.974-15.872-32.597c-1.207-4.114-1.951-8.35-2.219-12.629l-0.085-1.451l-4.181-57.771l-3.925-55.296
				c0,0,0-23.04,18.944-31.232c13.141,4.779,15.019,14.165,40.277,14.165V72.945c9.696,8.056,22.053,12.196,34.645,11.605V50.417
				c0,0,3.157-0.512,8.277-1.024h0.085C291.385,52.38,320.057,64.156,315.364,101.617z"/>
			<path style="fill:#E3E7F2;" d="M369.807,152.903c-5.538-3.258-12.414-3.225-17.92,0.085c-2.074,1.089-4.02,2.406-5.803,3.925
				l3.925-55.296c8.533-68.267-93.867-51.2-93.867-51.2v34.133c-34.133,0-25.6-17.067-59.733-17.067s-34.133,34.133-34.133,34.133
				l3.925,55.296c-1.783-1.52-3.729-2.836-5.803-3.925c-5.506-3.311-12.383-3.343-17.92-0.085
				C97.167,7.751,179.343,7.751,179.343,7.751h153.6C332.943,7.751,415.119,7.751,369.807,152.903z"/>
		</g>
		<path style="fill:#7FABFA;" d="M369.807,152.903c-5.538-3.258-12.414-3.225-17.92,0.085c-2.074,1.089-4.02,2.406-5.803,3.925
			l1.195-16.64C383.972,7.751,306.66,7.751,306.66,7.751h26.283C332.943,7.751,415.119,7.751,369.807,152.903z"/>
		<path style="fill:#FFFFFF;" d="M8.676,451.484c0,28.277,22.923,51.2,51.2,51.2h25.6c-28.277,0-51.2-22.923-51.2-51.2v-42.667
			l-0.341-0.427c24.235-19.456,64.256-33.024,98.645-45.909c2.304-0.853,4.608-1.707,6.827-2.56
			c8.875-3.328,17.237-6.571,24.747-9.899c2.475-1.138,4.864-2.247,7.168-3.328c5.83-2.849,11.373-6.249,16.555-10.155
			c1.728-1.374,3.375-2.847,4.932-4.412c0.708-0.7,1.331-1.442,1.988-2.176c0.794-0.853,1.604-1.707,2.33-2.611
			c0.725-0.905,1.271-1.707,1.886-2.56c0.614-0.853,1.271-1.707,1.852-2.56c0.58-0.853,1.075-1.707,1.596-2.56
			c0.521-0.853,1.109-1.869,1.613-2.825c0.435-0.853,0.853-1.647,1.246-2.475c0.521-1.075,1.024-2.159,1.485-3.243
			c0.307-0.708,0.589-1.417,0.853-2.125c0.512-1.297,0.99-2.6,1.434-3.908l0.486-1.476c0.521-1.707,1.007-3.337,1.425-4.992
			l0.102-0.367c0.478-1.911,0.853-3.814,1.246-5.692c0.418-2.142,0.657-4.19,0.93-6.246c-1.715-6.076-4.395-14.029,0.196-14.029
			l0.853,0.512c0.094-4.497,0-8.533-0.205-11.435c-6.95-9.976-12.305-20.974-15.872-32.597c-1.207-4.114-1.951-8.35-2.219-12.629
			l-0.085-1.451c-1.773,3.723-5.44,6.178-9.557,6.4c-5.844,0.063-11.225-3.172-13.909-8.363
			c-6.481-12.45-9.959-26.243-10.155-40.277c-0.468-4.631,0.026-9.308,1.451-13.739c0.813-2.316,2.299-4.336,4.267-5.803
			C122.767,7.751,204.943,7.751,204.943,7.751h-25.6c0,0-82.176,0-36.864,145.152c-1.968,1.466-3.454,3.487-4.267,5.803
			c-1.425,4.431-1.918,9.108-1.451,13.739c0.196,14.034,3.674,27.828,10.155,40.277c2.685,5.191,8.066,8.426,13.909,8.363
			c4.118-0.222,7.784-2.677,9.557-6.4l0.085,1.451c0.267,4.279,1.012,8.515,2.219,12.629c3.567,11.624,8.922,22.621,15.872,32.597
			c0.188,2.935,0.299,6.938,0.205,11.435l-0.887-0.512c-4.591,0-1.911,7.953-0.179,13.978c-0.273,2.057-0.512,4.105-0.93,6.246
			c-0.358,1.877-0.768,3.78-1.246,5.692l-0.102,0.367c-0.418,1.655-0.905,3.328-1.425,4.992l-0.486,1.476
			c-0.444,1.303-0.922,2.605-1.434,3.908c-0.282,0.708-0.563,1.417-0.853,2.125c-0.461,1.084-0.964,2.167-1.485,3.243
			c-0.401,0.853-0.811,1.655-1.246,2.475c-0.503,0.956-1.058,1.886-1.613,2.825c-0.555,0.939-1.033,1.707-1.596,2.56
			c-0.563,0.853-1.22,1.707-1.852,2.56c-0.631,0.853-1.22,1.707-1.886,2.56c-0.666,0.853-1.536,1.707-2.33,2.611
			c-0.657,0.734-1.28,1.476-1.988,2.176c-1.562,1.583-3.214,3.073-4.949,4.463c-5.182,3.905-10.725,7.306-16.555,10.155
			c-2.276,1.138-4.665,2.247-7.168,3.328c-7.509,3.328-15.872,6.571-24.747,9.899c-2.219,0.853-4.523,1.707-6.827,2.56
			c-34.389,12.885-74.411,26.453-98.645,45.909l0.341,0.427V451.484z"/>
	</g>
	<g>
		<polygon style="fill:#FFFFFF;" points="257.143,512.217 146.209,512.217 60.876,512.217 60.876,495.151 146.209,495.151 
			257.143,495.151 		"/>
		<g>
			<path style="fill:#428DFF;" d="M194.935,509.743l1.024-1.28c0.323-0.476,0.581-0.992,0.768-1.536
				c0.247-0.484,0.419-1.001,0.512-1.536c0.095-0.564,0.152-1.135,0.171-1.707c-0.033-2.259-0.917-4.422-2.475-6.059
				c-0.816-0.771-1.772-1.38-2.816-1.792c-3.183-1.288-6.825-0.586-9.301,1.792c-0.771,0.816-1.38,1.772-1.792,2.816
				c-0.437,1.026-0.669,2.128-0.683,3.243c-0.02,3.467,2.059,6.601,5.261,7.931C188.806,512.944,192.493,512.204,194.935,509.743z"
				/>
			<path style="fill:#428DFF;" d="M420.027,359.471c-5.973-2.21-11.836-4.378-17.553-6.562c-12.544-4.685-22.639-8.678-31.053-12.8
				c-5.316-2.584-10.371-5.673-15.095-9.225c-22.596-17.92-23.97-50.347-23.211-65.664c6.77-10.2,12.036-21.322,15.633-33.024
				c0.205-0.683,0.316-1.417,0.503-2.108c0.674,0.145,1.374,0.393,2.022,0.469c0.811,0.117,1.63,0.174,2.449,0.171
				c8.315-0.522,15.801-5.217,19.891-12.476c7.189-13.688,11.103-28.857,11.435-44.314c0.536-5.819-0.144-11.686-1.997-17.229
				c-0.699-1.79-1.622-3.485-2.748-5.043c17.51-58.513,16.828-101.547-2.355-127.599c-10.321-14.18-26.491-22.944-44.006-23.851
				h-153.6c-17.511,0.9-33.68,9.655-44.006,23.825c-19.183,26.086-19.866,69.12-2.355,127.599c-1.125,1.555-2.049,3.247-2.748,5.035
				c-1.851,5.534-2.531,11.392-1.997,17.203c0.334,15.514,4.272,30.738,11.503,44.467c4.079,7.19,11.505,11.842,19.755,12.373
				c0.799-0.001,1.598-0.058,2.389-0.171c0.691-0.085,1.434-0.341,2.15-0.503c0.179,0.708,0.299,1.442,0.503,2.133
				c3.607,11.7,8.881,22.819,15.659,33.015c0.759,15.283-0.614,47.693-23.168,65.63c-4.716,3.551-9.762,6.64-15.07,9.225
				c-8.482,4.198-18.577,8.192-31.164,12.894c-5.675,2.167-11.546,4.335-17.51,6.545c-31.573,11.691-67.413,24.943-90.266,43.247
				c-1.733,1.526-2.8,3.67-2.97,5.973c-0.088,0.8-0.057,1.608,0.094,2.398v41.378c0.038,32.974,26.759,59.696,59.733,59.733h93.867
				c4.713,0,8.533-3.82,8.533-8.533s-3.82-8.533-8.533-8.533H94.745c-2.62-48.452-26.752-73.216-27.836-74.3
				c-3.365-3.03-8.51-2.904-11.723,0.286c-3.213,3.19-3.375,8.335-0.369,11.721c14.323,17.651,22.366,39.567,22.861,62.293H60.876
				c-23.552-0.028-42.638-19.114-42.667-42.667V413.35c20.915-15.275,53.248-27.238,81.971-37.854
				c3.277-1.212,6.391-2.389,9.583-3.584c13.935,23.04,55.637,80.725,130.406,95.215c11.212,2.156,22.733,2.156,33.946,0
				c74.769-14.507,116.471-72.183,130.406-95.223c3.191,1.195,6.323,2.372,9.591,3.584c28.715,10.615,61.047,22.579,81.92,37.854
				v39.142c-0.028,23.552-19.114,42.638-42.667,42.667h-16.759c0.508-22.724,8.549-44.635,22.861-62.293
				c3.228-3.355,3.17-8.678-0.129-11.963c-3.299-3.285-8.622-3.32-11.963-0.078c-1.084,1.084-25.216,25.847-27.836,74.3H223.009
				c-4.713,0-8.533,3.82-8.533,8.533c0,4.713,3.821,8.533,8.533,8.533h230.4c32.974-0.038,59.696-26.759,59.733-59.733v-40.67
				c0.967-3.314-0.158-6.884-2.85-9.045C487.466,384.431,451.634,371.179,420.027,359.471z M367.974,172.992
				c-0.1,12.553-3.118,24.91-8.815,36.096c-2.048,3.183-4.599,4.634-5.683,4.514c-0.631-0.08-1.249-0.235-1.843-0.461l3.644-50.534
				c0.529-0.333,1.007-0.759,1.536-1.041c2.481-1.436,5.415-1.878,8.209-1.237c1.034,0.427,1.804,1.321,2.074,2.406
				c0.963,3.334,1.273,6.823,0.913,10.274L367.974,172.992z M155.161,209.216c-5.743-11.224-8.785-23.634-8.883-36.241
				c-0.357-3.441-0.044-6.918,0.922-10.24c0.269-1.079,1.036-1.967,2.065-2.389c2.784-0.642,5.708-0.206,8.183,1.22
				c0.546,0.29,1.024,0.717,1.562,1.058l3.601,50.509c-0.628,0.268-1.292,0.443-1.971,0.521
				C158.267,213.017,156.276,211.404,155.161,209.216z M179.908,215.317c0-0.154,0-0.299,0-0.452l-8.098-112.205
				c-0.378-6.902,2.196-13.64,7.08-18.532c4.884-4.892,11.617-7.477,18.52-7.111c8.964-0.795,17.908,1.731,25.131,7.1
				c10.019,7.257,22.259,10.783,34.603,9.967c4.713,0,8.533-3.821,8.533-8.533c0-4.713-3.82-8.533-8.533-8.533
				c-8.964,0.795-17.908-1.731-25.131-7.1c-10.019-7.257-22.259-10.783-34.603-9.967c-11.543-0.408-22.728,4.04-30.838,12.265
				c-8.109,8.224-12.4,19.472-11.829,31.008l2.901,40.525c-2.775-0.645-5.633-0.861-8.474-0.64
				c-18.278-63.249-9.924-94.02,0.708-108.689c7.077-9.984,18.256-16.272,30.464-17.135h153.6
				c12.089,0.842,23.176,7.022,30.251,16.862c10.769,14.643,19.268,45.431,0.853,108.962c-2.841-0.221-5.699-0.003-8.474,0.649
				l2.859-40.107c3.041-15.968-2.017-32.407-13.508-43.904c-27.904-26.795-87.697-17.195-90.231-16.768
				c-4.537,0.885-7.544,5.221-6.784,9.78c0.761,4.559,5.013,7.684,9.591,7.048c14.933-2.458,57.591-5.06,75.614,12.262
				c7.613,7.958,10.751,19.192,8.363,29.943l-8.064,112.947v0.324l-0.094,1.289c-0.243,3.629-0.884,7.22-1.911,10.709
				c-6.651,22.237-20.409,41.679-39.168,55.347c-7.188,5.065-15.775,7.764-24.567,7.723h-23.04
				c-8.79,0.039-17.374-2.66-24.559-7.723c-18.756-13.667-32.515-33.106-39.168-55.339c-1.027-3.492-1.668-7.086-1.911-10.718
				L179.908,215.317z M168.592,344.222c17.234-15.034,27.691-36.373,29.013-59.204c4.193,4.154,8.691,7.987,13.457,11.469
				c10.101,7.146,22.178,10.967,34.551,10.931h23.04c12.379,0.036,24.461-3.784,34.569-10.931
				c4.768-3.479,9.267-7.313,13.457-11.469c1.336,22.85,11.818,44.2,29.082,59.23c3.656,2.806,7.512,5.342,11.537,7.586
				c-8.934,14.583-37.094,53.76-87.313,64.427c-8.585,1.798-17.453,1.769-26.027-0.085c-50.014-10.863-78.148-50.082-86.921-64.341
				C161.066,349.575,164.928,347.032,168.592,344.222z M270.864,450.376c-9.064,1.749-18.379,1.749-27.443,0
				c-65.459-12.689-103.211-62.037-117.376-84.599c5.666-2.176,10.812-4.267,15.599-6.349
				c21.573,36.831,57.183,63.319,98.662,73.387c5.557,1.203,11.227,1.809,16.913,1.809c5.478,0.003,10.94-0.569,16.299-1.707
				c41.69-9.955,77.498-36.52,99.115-73.532c4.787,2.091,9.941,4.181,15.607,6.357C374.049,388.339,336.324,437.687,270.864,450.376
				z"/>
		</g>
	</g>
</g>
<g>
</g>
<g>
</g>
<g>
</g>
<g>
</g>
<g>
</g>
<g>
</g>
<g>
</g>
<g>
</g>
<g>
</g>
<g>
</g>
<g>
</g>
<g>
</g>
<g>
</g>
<g>
</g>
<g>
</g>
</svg>
