<!DOCTYPE svg PUBLIC "-//W3C//DTD SVG 20010904//EN" "http://www.w3.org/TR/2001/REC-SVG-20010904/DTD/svg10.dtd">
<svg version="1.0" xmlns="http://www.w3.org/2000/svg" width="103px" height="116px" viewBox="0 0 1030 1160" preserveAspectRatio="xMidYMid meet">
<g id="layer101" fill="#25160c" stroke="none">
<path d="M203 1139 c21 -11 46 -28 56 -37 10 -9 26 -22 36 -27 14 -9 16 -18 10 -53 -4 -23 -10 -40 -15 -37 -4 3 -11 -6 -14 -20 -3 -13 -15 -29 -27 -35 -17 -10 -18 -14 -7 -28 7 -9 9 -14 4 -10 -10 9 -66 -41 -66 -60 0 -8 -6 -12 -15 -8 -8 3 -15 1 -15 -4 0 -6 5 -10 11 -10 6 0 9 -6 6 -12 -2 -7 0 -21 5 -32 7 -13 6 -21 -3 -26 -7 -5 -14 -25 -16 -46 -2 -21 -9 -44 -15 -51 -8 -10 -7 -20 2 -39 11 -20 12 -32 2 -57 -8 -22 -9 -33 -1 -38 8 -4 8 -9 1 -13 -6 -4 -14 -27 -18 -52 -5 -36 -2 -56 20 -103 14 -32 26 -65 26 -74 0 -8 11 -39 25 -69 13 -29 22 -60 19 -70 -2 -9 0 -19 5 -23 7 -4 9 1 5 12 -5 16 -3 15 10 -2 9 -11 24 -26 34 -34 16 -13 15 -13 -3 -7 -18 6 -18 5 -5 -7 8 -8 26 -18 40 -22 24 -7 24 -7 5 9 -19 14 -17 14 18 4 21 -7 33 -14 26 -19 -8 -5 -8 -9 2 -15 7 -4 14 -3 17 4 5 16 53 15 74 -2 10 -7 15 -15 13 -18 -7 -7 163 30 177 38 7 4 8 3 4 -4 -5 -8 3 -10 26 -6 41 8 78 30 78 48 0 7 23 37 50 66 33 35 50 61 48 74 -2 14 2 20 11 18 9 -2 11 3 7 13 -8 22 14 65 30 58 8 -3 14 0 14 6 0 6 -4 11 -9 11 -6 0 -3 16 5 37 9 20 13 44 11 55 -3 10 -1 21 4 24 12 7 12 71 0 79 -5 3 -12 -5 -14 -17 -4 -21 -4 -21 -6 2 0 15 5 32 12 39 10 11 10 13 0 7 -9 -5 -13 0 -13 14 0 12 5 18 10 15 6 -3 10 2 10 12 0 10 9 24 20 31 23 14 27 42 5 42 -8 0 -15 7 -15 15 0 8 -4 15 -9 15 -6 0 -7 10 -4 23 8 36 5 57 -16 103 -12 24 -21 51 -21 59 0 8 -4 15 -10 15 -5 0 -10 8 -10 18 0 10 -6 27 -14 37 -13 18 -11 21 15 37 16 10 29 22 29 27 0 18 50 61 101 86 27 14 49 32 49 40 0 13 -57 15 -432 15 l-433 -1 38 -20z"/>
</g>
<g id="layer102" fill="#412311" stroke="none">
<path d="M203 1139 c21 -11 46 -28 56 -37 10 -9 26 -22 36 -27 14 -9 16 -18 10 -53 -4 -24 -9 -41 -12 -38 -7 7 -43 -63 -43 -83 0 -8 -3 -12 -6 -8 -10 10 -61 -46 -72 -79 -6 -20 -6 -36 0 -48 7 -13 7 -21 -2 -26 -6 -4 -11 -10 -11 -14 3 -19 0 -27 -7 -22 -5 3 -6 -8 -4 -25 2 -16 -1 -36 -7 -43 -9 -11 -9 -19 1 -35 10 -16 10 -27 0 -53 -8 -23 -9 -34 -1 -39 8 -4 8 -9 1 -13 -6 -4 -14 -27 -18 -52 -5 -36 -2 -56 20 -103 14 -32 26 -66 26 -74 0 -27 70 -166 91 -180 10 -8 16 -17 11 -22 -4 -5 -2 -5 5 -2 6 4 24 2 40 -4 35 -14 106 -21 99 -11 -2 4 4 19 15 32 l19 25 0 -33 c0 -19 -4 -31 -10 -27 -5 3 -7 0 -4 -9 3 -8 12 -17 19 -20 16 -6 123 10 160 24 15 6 24 6 21 1 -8 -12 71 4 89 19 8 7 15 18 15 25 0 6 23 36 50 65 33 35 50 61 48 74 -2 14 2 20 11 18 9 -2 11 3 7 13 -8 22 14 65 30 58 8 -3 14 0 14 6 0 6 -4 11 -9 11 -6 0 -3 16 5 36 8 20 14 43 12 52 -1 10 1 23 5 29 4 7 5 30 1 50 -7 36 -8 36 -15 13 -7 -22 -7 -20 -7 10 1 19 -2 51 -5 70 -6 28 -5 30 3 13 5 -13 12 -23 15 -23 4 0 3 4 0 10 -3 5 6 19 20 32 27 24 33 48 11 48 -22 0 -38 44 -25 71 5 10 2 25 -9 40 -9 13 -17 30 -17 39 -2 32 -18 80 -26 80 -5 0 -9 8 -9 18 0 10 -6 27 -14 37 -13 18 -11 21 15 37 16 10 29 22 29 27 0 18 50 61 101 86 27 14 49 32 49 40 0 13 -57 15 -432 15 l-433 -1 38 -20z m627 -134 c-7 -8 -17 -15 -23 -15 -5 0 -2 9 8 20 21 23 35 19 15 -5z m-19 -119 c10 6 7 -25 -4 -43 -13 -20 14 -15 29 5 12 15 13 15 14 1 0 -9 -16 -30 -35 -48 -32 -29 -51 -31 -22 -2 10 10 9 12 -3 9 -12 -2 -16 9 -18 51 -3 50 -2 52 13 37 9 -9 21 -14 26 -10z m-611 -378 c0 -32 -3 -39 -10 -28 -5 8 -10 23 -10 33 0 10 -4 15 -10 12 -5 -3 -10 -2 -10 4 0 9 15 18 33 20 4 1 7 -18 7 -41z m670 -15 c0 -14 -3 -23 -6 -20 -4 3 -18 -3 -33 -14 -39 -31 -41 -2 -2 33 39 35 41 35 41 1z m-75 -147 c-35 -60 -53 -70 -25 -15 26 50 41 71 47 65 3 -2 -7 -25 -22 -50z m-598 28 c-3 -4 0 -15 7 -25 15 -22 9 -82 -8 -76 -25 8 -23 107 3 107 2 0 1 -3 -2 -6z m15 -141 c0 -4 4 -18 9 -30 5 -13 5 -23 0 -23 -11 0 -21 25 -21 52 0 20 11 20 12 1z m42 -75 c-2 -4 4 -11 13 -17 10 -6 13 -11 7 -11 -7 0 -22 8 -34 18 -21 17 -21 18 -2 18 11 0 19 -4 16 -8z m466 -3 c-20 -24 -62 -52 -90 -59 -19 -6 -21 -5 -10 3 13 9 12 11 -5 12 -11 1 -26 2 -32 2 -7 -1 -13 3 -13 8 0 14 68 11 73 -3 3 -9 17 -2 43 19 44 36 53 40 34 18z m-45 -5 c-3 -5 -18 -9 -33 -9 l-27 1 30 8 c17 4 31 8 33 9 2 0 0 -3 -3 -9z m-112 -50 l32 -7 -25 -11 c-18 -8 -20 -11 -7 -11 23 -1 22 -18 -3 -26 -24 -8 -88 4 -96 17 -8 12 16 29 30 21 5 -3 6 -1 3 5 -4 5 -4 17 -1 26 5 13 9 14 20 5 8 -6 29 -15 47 -19z m-245 -14 c14 -5 22 -3 22 4 0 7 5 6 14 -2 8 -7 11 -16 7 -20 -9 -10 -78 9 -87 24 -5 7 -2 9 7 6 8 -3 24 -8 37 -12z"/>
</g>
<g id="layer103" fill="#6f4833" stroke="none">
<path d="M203 1139 c21 -11 46 -28 56 -37 10 -9 26 -22 36 -27 14 -9 16 -18 10 -53 -4 -24 -9 -41 -12 -38 -6 6 -43 -63 -43 -80 0 -7 -6 -15 -12 -17 -7 -3 -3 -6 10 -6 l22 -1 -21 -42 c-26 -53 -23 -50 -41 -43 -17 7 -14 39 5 63 17 22 1 23 -19 1 -13 -15 -19 -36 -19 -70 0 -27 -3 -49 -6 -49 -3 0 -6 -7 -6 -15 0 -8 4 -15 7 -15 11 0 31 26 24 33 -3 3 4 8 15 12 12 3 21 10 21 15 0 4 7 10 14 13 23 9 8 -19 -18 -37 -13 -8 -29 -29 -36 -46 -9 -22 -15 -28 -21 -18 -6 9 -10 7 -14 -7 -4 -11 -11 -28 -16 -38 -7 -13 -6 -23 2 -33 6 -8 9 -25 7 -39 -8 -38 9 -40 43 -5 29 28 31 29 25 8 -4 -13 -6 -68 -6 -123 1 -55 2 -119 2 -142 0 -27 6 -44 15 -47 8 -3 11 -11 7 -17 -4 -8 -3 -9 4 -5 14 9 74 -72 65 -88 -4 -6 2 -4 12 4 16 13 18 13 13 0 -6 -19 18 -44 33 -34 7 4 9 3 6 -3 -4 -6 2 -13 14 -16 12 -3 22 0 26 8 3 10 14 12 33 9 23 -5 29 -2 35 16 6 20 8 20 31 6 29 -20 35 -20 28 -1 -6 14 -2 16 39 19 6 0 22 11 35 24 13 14 32 22 45 21 12 -2 29 1 37 5 8 5 4 -3 -10 -19 -21 -24 -22 -27 -6 -21 19 7 19 6 1 -14 -24 -26 -5 -26 29 1 19 15 24 16 20 5 -3 -9 -30 -31 -60 -49 -29 -19 -51 -36 -48 -39 12 -12 -60 -30 -104 -26 -31 3 -52 0 -59 -8 -19 -20 9 -24 74 -13 32 6 83 13 113 15 58 6 100 26 100 48 0 7 23 37 50 66 33 35 50 61 48 74 -2 14 2 20 11 18 9 -2 11 3 7 13 -8 22 14 65 30 58 8 -3 14 0 14 6 0 6 -4 11 -9 11 -6 0 -3 16 5 36 8 20 14 43 12 52 -1 10 1 23 5 29 4 7 5 30 1 50 -7 35 -8 36 -15 13 -4 -18 -7 -10 -7 27 0 35 4 51 11 46 6 -3 7 -1 3 5 -4 6 5 21 19 34 27 24 33 48 11 48 -23 0 -38 44 -24 72 10 22 -6 32 -24 15 -7 -7 -27 -20 -45 -29 -29 -15 -32 -14 -36 3 -3 11 -10 19 -17 19 -6 0 -9 -4 -6 -9 3 -5 0 -11 -7 -14 -9 -3 -11 18 -9 93 3 95 4 97 26 95 19 -2 23 1 18 17 -2 11 -11 22 -18 25 -10 4 -7 15 13 44 26 40 45 45 36 9 -3 -10 -14 -22 -24 -25 -19 -6 -19 -7 -1 -33 13 -19 16 -36 11 -57 -12 -53 -10 -73 5 -40 l13 30 8 -24 c5 -18 3 -28 -9 -36 -14 -11 -13 -13 7 -23 23 -11 21 -12 -33 -16 -8 -1 -15 -10 -15 -21 0 -16 6 -20 29 -18 31 2 48 23 52 58 2 25 -18 95 -28 95 -5 0 -8 9 -8 20 0 11 -5 20 -11 20 -5 0 -7 5 -4 10 3 6 1 10 -4 10 -20 0 -11 17 14 28 14 7 28 19 32 28 10 27 52 63 104 89 27 14 49 32 49 40 0 13 -57 15 -432 15 l-433 -1 38 -20z m327 -113 c29 -14 46 -30 48 -44 3 -18 -1 -20 -40 -19 -24 1 -47 7 -51 12 -6 7 -10 6 -13 -2 -4 -8 -11 -6 -25 8 -25 25 -39 24 -39 -2 0 -16 -3 -19 -13 -11 -8 7 -18 7 -27 2 -9 -6 -17 -5 -22 3 -7 12 8 37 24 37 5 0 21 9 35 20 33 26 67 25 123 -4z m351 -353 c10 -11 10 -14 2 -9 -9 5 -13 0 -13 -13 0 -30 -14 -26 -27 9 -10 26 -9 30 7 30 9 0 24 -8 31 -17z m-61 -47 c0 -13 -6 -28 -13 -34 -10 -9 -12 -4 -9 23 5 39 22 48 22 11z m62 -84 l-4 -74 -45 -19 c-57 -24 -59 -24 -39 6 24 37 10 30 -34 -17 -45 -47 -54 -32 -15 26 14 20 25 48 25 62 0 14 4 23 10 19 5 -3 6 -13 3 -22 -4 -11 -3 -14 6 -9 6 4 17 3 24 -2 7 -6 21 -6 35 -1 18 7 22 16 22 52 0 24 3 47 7 50 10 10 10 7 5 -71z m-523 -51 c9 -6 6 -8 -13 -8 -14 0 -23 3 -20 8 7 11 15 11 33 0z m471 -86 c0 -10 -49 -112 -63 -130 -8 -11 -18 -17 -22 -13 -8 7 32 106 53 131 14 16 32 23 32 12z m-99 -98 c-5 -14 -15 -28 -22 -33 -7 -4 -10 -3 -6 3 4 6 11 23 17 38 6 15 13 26 16 23 2 -3 0 -17 -5 -31z m-51 -87 c-8 -5 -22 -10 -30 -10 -13 0 -13 1 0 10 8 5 22 10 30 10 13 0 13 -1 0 -10z"/>
<path d="M130 520 c0 -6 5 -10 11 -10 9 0 9 -4 0 -14 -6 -7 -14 -33 -17 -58 -5 -36 -1 -53 20 -94 l27 -49 -7 55 c-4 30 -6 80 -6 111 1 42 -2 59 -13 63 -8 3 -15 1 -15 -4z"/>
<path d="M230 128 c0 -3 9 -15 19 -27 19 -21 119 -66 128 -58 2 3 -17 12 -44 21 -26 9 -60 28 -75 43 -15 15 -28 24 -28 21z"/>
</g>
<g id="layer104" fill="#d63a33" stroke="none">
<path d="M203 1139 c21 -11 46 -28 56 -37 10 -9 26 -22 36 -27 14 -9 16 -18 10 -53 -4 -26 -11 -40 -18 -35 -7 4 -8 0 -4 -11 4 -10 7 -22 7 -27 0 -19 18 -8 29 19 18 44 125 102 190 103 28 1 51 5 51 8 0 16 78 -3 110 -27 55 -41 56 -44 63 -113 4 -36 13 -85 21 -110 l14 -44 1 85 c1 72 5 91 25 120 13 20 26 44 29 55 4 17 7 15 18 -12 15 -36 26 -42 36 -17 10 27 52 63 104 89 27 14 49 32 49 40 0 13 -57 15 -432 15 l-433 -1 38 -20z"/>
<path d="M365 920 c3 -5 -8 -24 -24 -41 -17 -17 -33 -40 -36 -50 -4 -11 -11 -19 -16 -19 -6 0 -7 -5 -3 -11 3 -6 1 -15 -5 -19 -7 -4 -19 -29 -26 -56 -13 -43 -14 -45 -12 -14 3 53 -22 44 -52 -20 -15 -30 -32 -55 -38 -55 -19 0 -25 -12 -14 -32 5 -10 12 -26 15 -35 3 -10 10 -18 15 -18 16 0 41 30 41 50 0 10 3 21 8 23 6 5 8 -225 1 -248 -1 -5 3 -35 9 -65 11 -48 17 -58 50 -75 20 -11 37 -27 37 -35 0 -10 16 -18 46 -25 25 -5 53 -16 62 -23 14 -12 21 -11 44 6 15 11 47 23 71 27 23 4 55 17 70 29 15 12 40 30 57 41 17 10 24 20 17 23 -18 6 -15 25 8 49 12 13 20 38 21 65 1 24 11 56 23 73 49 70 73 212 35 200 -13 -4 -19 5 -28 40 -6 25 -13 45 -15 45 -3 0 -17 -5 -31 -10 -23 -9 -26 -8 -23 7 4 20 -21 55 -34 47 -4 -3 -8 2 -8 11 0 8 -7 18 -16 22 -8 3 -13 12 -10 19 4 10 -2 14 -19 14 -18 0 -23 4 -19 15 4 8 1 15 -6 15 -6 0 -8 -5 -5 -10 8 -13 -44 -33 -59 -22 -6 4 -28 7 -49 6 -27 -1 -37 3 -33 11 2 7 -6 22 -18 34 -23 22 -42 28 -31 11z m225 -180 c0 -6 -9 -10 -20 -10 -13 0 -20 7 -20 20 0 18 3 19 20 10 11 -6 20 -15 20 -20z m10 -34 c0 -19 -12 -26 -50 -31 -22 -2 -30 1 -30 11 0 11 6 13 19 9 11 -3 25 0 33 9 17 19 28 20 28 2z m-74 -56 c8 0 14 -10 14 -22 0 -21 0 -21 -15 -2 -8 11 -15 14 -15 7 0 -17 -25 -16 -39 1 -13 16 3 28 27 20 8 -2 20 -4 28 -4z m-222 -147 c4 -4 19 -7 33 -8 14 0 28 -6 31 -13 3 -9 -4 -11 -21 -8 -27 5 -67 24 -67 31 0 7 16 6 24 -2z m197 -25 c-3 -21 -6 -26 -9 -15 -3 17 3 47 11 47 2 0 1 -15 -2 -32z m152 1 c-5 -5 -27 -12 -48 -16 -30 -5 -37 -3 -33 8 3 8 18 14 36 14 17 1 34 4 38 8 4 4 10 5 13 2 2 -3 0 -10 -6 -16z m16 -35 c-20 -24 -74 -45 -95 -37 -12 4 -15 3 -10 -5 10 -17 -6 -15 -30 3 -18 13 -15 14 29 15 50 0 107 22 107 42 0 6 3 8 6 5 4 -4 1 -14 -7 -23z m-308 -14 c16 0 29 -5 29 -10 0 -13 -70 -2 -85 13 -7 7 -4 8 8 3 10 -3 32 -6 48 -6z"/>
<path d="M927 650 c-9 -13 -14 -26 -12 -29 9 -8 38 26 33 40 -3 8 -10 5 -21 -11z"/>
<path d="M880 461 c0 -10 -9 -30 -20 -44 -11 -14 -20 -30 -20 -35 0 -6 -7 -17 -15 -26 -9 -8 -11 -17 -6 -21 6 -3 20 5 32 17 l21 23 -7 -25 c-4 -14 -14 -36 -23 -50 l-16 -25 -7 25 c-4 14 -7 19 -8 12 -1 -7 -5 -11 -10 -8 -5 4 -7 -2 -4 -13 3 -10 -1 -22 -8 -27 -9 -5 -11 -2 -6 12 7 18 7 18 -7 1 -8 -11 -12 -25 -9 -33 6 -17 -46 -101 -83 -133 -25 -22 -25 -23 -7 -37 17 -14 17 -15 -4 -9 -18 5 -83 -17 -83 -28 0 -7 92 4 115 13 14 5 29 20 34 33 5 13 30 45 55 72 31 32 46 55 44 69 -2 14 2 20 11 18 9 -2 11 3 7 13 -8 22 14 65 30 58 8 -3 14 0 14 6 0 6 -4 11 -9 11 -6 0 -3 16 5 37 9 20 13 44 11 55 -3 10 -1 21 4 24 17 10 9 34 -11 34 -13 0 -20 -7 -20 -19z"/>
</g>
<g id="layer105" fill="#936954" stroke="none">
<path d="M320 1127 c0 -46 -21 -147 -30 -147 -5 0 -6 -9 -3 -20 7 -28 19 -25 32 8 18 44 125 102 190 103 28 1 51 5 51 8 0 16 78 -3 110 -27 55 -41 56 -44 63 -113 4 -36 13 -85 21 -110 l14 -44 1 85 c1 74 4 90 26 122 34 51 32 71 -16 123 l-42 45 -208 0 -209 0 0 -33z"/>
<path d="M365 920 c3 -5 -8 -24 -24 -41 -17 -17 -33 -40 -36 -50 -4 -11 -11 -19 -16 -19 -6 0 -7 -5 -3 -11 3 -6 1 -15 -5 -19 -7 -4 -19 -29 -26 -56 -13 -43 -14 -45 -12 -14 3 53 -21 44 -53 -20 -15 -31 -32 -54 -39 -52 -10 2 -12 -7 -6 -35 3 -21 10 -42 14 -46 14 -14 42 5 48 34 12 62 18 32 17 -84 -1 -67 -3 -126 -5 -132 -1 -5 3 -35 9 -65 11 -48 17 -58 50 -75 20 -11 37 -27 37 -35 0 -10 16 -18 46 -25 25 -5 53 -16 62 -23 14 -12 21 -11 44 6 15 11 47 23 71 27 23 4 55 17 70 29 15 12 40 30 57 41 17 10 24 20 17 23 -18 6 -15 25 8 49 12 13 20 38 21 65 1 24 11 56 23 73 49 70 73 212 35 200 -13 -4 -19 5 -28 40 -6 25 -13 45 -15 45 -3 0 -17 -5 -31 -10 -23 -9 -26 -8 -23 7 4 20 -21 55 -34 47 -4 -3 -8 2 -8 11 0 8 -7 18 -16 22 -8 3 -13 12 -10 19 4 10 -2 14 -19 14 -18 0 -23 4 -19 15 4 8 1 15 -6 15 -6 0 -8 -5 -5 -10 8 -13 -44 -33 -59 -22 -6 4 -28 7 -49 6 -27 -1 -37 3 -33 11 2 7 -6 22 -18 34 -23 22 -42 28 -31 11z m225 -180 c0 -6 -9 -10 -20 -10 -13 0 -20 7 -20 20 0 18 3 19 20 10 11 -6 20 -15 20 -20z m10 -34 c0 -19 -12 -26 -50 -31 -22 -2 -30 1 -30 11 0 11 6 13 19 9 11 -3 25 0 33 9 17 19 28 20 28 2z m-74 -56 c8 0 14 -10 14 -22 0 -21 0 -21 -15 -2 -8 11 -15 14 -15 7 0 -17 -25 -16 -39 1 -13 16 3 28 27 20 8 -2 20 -4 28 -4z m-222 -147 c4 -4 19 -7 33 -8 14 0 28 -6 31 -13 3 -9 -4 -11 -21 -8 -27 5 -67 24 -67 31 0 7 16 6 24 -2z m197 -25 c-3 -21 -6 -26 -9 -15 -3 17 3 47 11 47 2 0 1 -15 -2 -32z m152 1 c-5 -5 -27 -12 -48 -16 -30 -5 -37 -3 -33 8 3 8 18 14 36 14 17 1 34 4 38 8 4 4 10 5 13 2 2 -3 0 -10 -6 -16z m16 -35 c-20 -24 -74 -45 -95 -37 -12 4 -15 3 -10 -5 10 -17 -6 -15 -30 3 -18 13 -15 14 29 15 50 0 107 22 107 42 0 6 3 8 6 5 4 -4 1 -14 -7 -23z m-308 -14 c16 0 29 -5 29 -10 0 -13 -70 -2 -85 13 -7 7 -4 8 8 3 10 -3 32 -6 48 -6z"/>
<path d="M933 658 c-25 -32 -26 -40 -4 -29 11 7 21 18 21 26 0 18 -5 19 -17 3z"/>
<path d="M830 630 c0 -5 5 -10 10 -10 14 0 12 -84 -2 -98 -7 -7 -8 -12 -2 -12 32 0 42 44 23 99 -10 29 -29 43 -29 21z"/>
<path d="M132 460 c-15 -25 -15 -33 0 -28 6 2 13 14 15 26 4 27 1 27 -15 2z"/>
<path d="M880 461 c0 -10 -9 -30 -20 -44 -11 -14 -20 -30 -20 -35 0 -6 -7 -17 -15 -26 -9 -8 -11 -17 -6 -21 6 -3 20 5 32 17 l21 23 -7 -25 c-4 -14 -14 -36 -23 -50 l-16 -25 -7 25 c-4 14 -7 19 -8 12 -1 -7 -5 -11 -10 -8 -5 4 -7 -2 -4 -13 3 -10 -1 -22 -8 -27 -9 -5 -11 -2 -6 12 7 18 7 18 -7 1 -8 -11 -12 -25 -9 -33 6 -17 -46 -101 -83 -133 -25 -22 -25 -23 -7 -37 17 -14 17 -15 -4 -9 -18 5 -83 -17 -83 -28 0 -4 57 0 96 8 24 4 38 15 49 34 8 16 35 50 60 77 30 31 45 55 43 68 -2 14 2 20 11 18 9 -2 11 3 7 13 -6 18 13 67 25 60 4 -3 10 -1 14 5 3 5 2 10 -4 10 -6 0 -4 15 5 37 9 20 13 44 11 55 -3 10 -1 21 4 24 17 10 9 34 -11 34 -13 0 -20 -7 -20 -19z"/>
<path d="M784 418 c-23 -18 -24 -18 -18 -1 5 16 4 16 -10 -1 -17 -21 -21 -42 -8 -50 4 -2 27 13 51 33 30 25 38 38 27 38 -10 0 -28 -9 -42 -19z"/>
<path d="M734 298 c-9 -18 -28 -48 -42 -67 -19 -26 -21 -33 -9 -28 9 3 17 2 17 -4 0 -6 5 -7 12 -3 7 4 8 3 4 -5 -4 -6 -11 -9 -16 -6 -5 3 -12 0 -16 -6 -5 -8 -3 -9 6 -4 10 6 12 4 6 -10 -6 -18 -6 -18 15 1 11 10 28 32 36 49 l16 30 -22 -19 -21 -19 16 54 c9 30 18 57 21 62 2 4 2 7 -1 7 -3 0 -13 -15 -22 -32z"/>
</g>
<g id="layer106" fill="#ab7c65" stroke="none">
<path d="M234 1143 c2 -25 27 -53 48 -53 14 0 18 8 18 35 0 33 -2 35 -34 35 -26 0 -33 -4 -32 -17z"/>
<path d="M317 1103 c-4 -32 -9 -80 -13 -108 l-6 -50 20 28 c24 35 114 94 167 109 76 23 135 15 198 -27 52 -34 57 -41 57 -74 1 -44 11 -145 15 -149 2 -2 6 27 10 65 5 48 14 77 31 100 33 44 30 67 -17 118 l-42 45 -207 0 -207 0 -6 -57z"/>
<path d="M374 923 c3 -6 -7 -22 -23 -36 -34 -29 -75 -106 -102 -192 -18 -57 -19 -58 -13 -15 3 25 7 49 8 54 0 5 -5 11 -12 13 -8 3 -23 -17 -40 -56 -15 -35 -32 -59 -39 -57 -13 5 -8 -63 6 -77 14 -14 42 5 48 34 12 63 18 31 16 -94 0 -73 3 -155 8 -183 9 -46 15 -54 57 -81 63 -40 88 -53 94 -48 3 3 17 -6 31 -19 23 -21 29 -23 41 -11 7 8 43 23 78 35 36 11 76 31 89 43 13 12 28 22 33 22 5 0 11 14 13 30 3 17 13 40 24 51 11 12 19 25 18 30 -6 35 5 77 27 104 21 24 26 41 26 76 -1 25 -4 49 -7 54 -3 5 -1 11 4 14 5 4 11 -8 13 -26 l4 -33 8 28 c7 22 4 32 -12 47 -10 10 -23 36 -27 57 -9 51 -15 57 -31 36 -13 -17 -13 -17 -14 2 0 16 -2 17 -10 5 -7 -12 -10 -11 -15 5 -11 33 -23 50 -34 48 -6 -2 -13 8 -17 22 -3 14 -10 22 -16 19 -5 -3 -18 2 -28 11 -10 9 -31 15 -47 14 -15 -2 -33 0 -40 4 -6 4 -18 4 -27 1 -9 -3 -16 -1 -16 5 0 7 -10 9 -27 5 -21 -6 -25 -4 -21 8 3 8 -3 25 -14 39 -11 13 -17 19 -14 12z m221 -197 c11 -26 15 -28 20 -13 4 9 11 17 17 17 19 0 -11 -34 -48 -55 -23 -13 -41 -31 -44 -46 -6 -22 -6 -23 -13 -4 -7 16 -10 17 -17 5 -7 -12 -13 -12 -27 -4 -24 15 -23 27 5 39 12 5 22 15 22 22 0 8 12 13 29 13 16 0 34 7 41 15 11 13 7 15 -26 16 -22 1 -31 3 -21 6 9 2 17 11 17 18 0 24 31 4 45 -29z m-230 -24 c-6 -7 -35 18 -35 31 0 5 9 2 20 -8 11 -10 18 -20 15 -23z m70 -1 c6 -11 -33 -26 -43 -16 -4 3 0 10 8 15 19 12 27 12 35 1z m71 -213 c-3 -13 -5 -27 -5 -32 -1 -7 -4 -7 -10 0 -4 5 -6 27 -3 48 3 29 7 35 13 23 5 -8 7 -26 5 -39z m-134 -2 c12 -18 -28 -19 -61 -1 -17 8 -31 18 -31 20 0 10 85 -8 92 -19z m290 -2 c-13 -9 -41 -18 -63 -21 -33 -5 -38 -3 -33 10 3 10 21 17 47 20 23 2 49 4 57 5 8 1 5 -5 -8 -14z m12 -39 c-28 -43 -165 -73 -152 -33 3 8 21 11 50 9 37 -2 51 2 74 23 37 32 49 33 28 1z m-306 -15 c12 0 22 -5 22 -11 0 -15 -69 -5 -84 12 -8 9 -5 10 14 5 14 -3 35 -6 48 -6z"/>
<path d="M830 632 c0 -7 5 -12 10 -12 14 0 12 -84 -2 -98 -8 -8 -8 -12 -1 -12 22 0 36 30 30 67 -6 35 -37 82 -37 55z"/>
<path d="M900 471 c-15 -6 -20 -18 -25 -59 -2 -13 -7 -27 -11 -30 -4 -4 -4 1 -1 11 14 37 -11 15 -26 -25 l-17 -41 25 23 c39 36 27 -19 -14 -70 l-21 -25 6 35 5 35 -20 -35 c-33 -57 -42 -81 -35 -92 4 -7 2 -8 -4 -4 -6 4 -16 -4 -23 -16 -6 -13 -23 -35 -36 -49 -20 -22 -23 -31 -14 -47 13 -25 -3 -40 -24 -22 -10 9 -20 8 -39 -2 -25 -13 -24 -13 22 -12 26 1 48 3 50 4 1 1 6 3 11 4 5 0 22 19 36 41 15 22 43 55 62 73 22 22 33 40 31 55 -2 14 2 21 11 19 9 -2 11 3 7 13 -6 18 13 67 25 60 4 -3 10 -1 14 5 3 5 2 10 -4 10 -6 0 -4 15 5 36 8 20 13 43 9 51 -3 9 0 22 6 29 14 18 8 33 -11 25z m-165 -351 c-3 -5 -16 -15 -28 -21 -22 -12 -22 -12 -3 10 19 21 43 30 31 11z"/>
<path d="M785 420 c-4 -6 -10 -8 -15 -5 -5 3 -14 -3 -19 -14 -14 -25 -14 -32 1 -28 11 2 58 45 58 53 0 8 -19 3 -25 -6z"/>
<path d="M740 313 c0 -6 -15 -34 -34 -62 -29 -43 -31 -49 -13 -39 21 11 21 11 3 -17 -10 -15 -12 -24 -5 -20 9 6 10 3 5 -11 -6 -16 -3 -15 18 5 13 12 27 32 30 44 5 20 4 20 -17 -4 -12 -14 -19 -20 -14 -13 10 16 36 118 31 123 -2 2 -4 0 -4 -6z"/>
</g>
<g id="layer107" fill="#ff7f8c" stroke="none">
<path d="M245 1128 c8 -20 22 -34 34 -36 18 -3 21 2 21 32 0 34 -2 36 -35 36 l-34 0 14 -32z"/>
<path d="M967 1111 c-75 -43 -78 -55 -4 -15 37 19 67 37 67 40 0 8 -15 2 -63 -25z"/>
<path d="M366 885 c-8 -8 -18 -24 -21 -35 -3 -11 -12 -20 -18 -20 -14 0 -61 -95 -82 -165 -17 -59 -19 -154 -4 -295 8 -86 14 -106 32 -122 33 -28 68 -45 110 -52 20 -4 37 -11 37 -16 0 -15 40 -12 46 4 3 8 27 16 55 20 27 4 49 11 49 16 0 5 11 12 25 16 14 3 26 10 26 15 1 5 2 13 3 18 0 5 17 25 36 45 27 26 37 45 38 73 2 21 12 51 22 68 43 67 44 72 31 143 -17 91 -21 102 -32 102 -6 0 -7 -4 -4 -10 3 -5 1 -10 -6 -10 -6 0 -18 -8 -25 -17 -12 -16 -13 -13 -14 22 0 55 -10 85 -26 85 -8 0 -14 -5 -14 -11 0 -5 5 -7 10 -4 6 3 10 0 10 -7 -1 -36 -15 -57 -50 -73 -46 -21 -93 -101 -76 -128 7 -11 6 -23 -2 -39 -6 -13 -10 -32 -8 -43 3 -11 5 -23 5 -27 1 -9 83 -11 105 -2 28 11 17 19 -25 20 -22 1 -46 7 -52 13 -9 9 -8 11 6 6 10 -4 17 -2 17 4 0 6 18 14 41 17 27 5 36 10 27 15 -8 5 -1 7 19 5 44 -6 52 -12 46 -36 -15 -57 -115 -107 -177 -88 -34 11 -49 28 -24 28 6 0 4 6 -7 13 -15 12 -17 24 -13 89 6 89 -2 108 -42 108 -23 0 -30 5 -30 20 0 11 -6 20 -14 20 -8 0 -28 13 -46 30 -40 37 -31 58 13 31 39 -23 124 -36 157 -22 22 9 23 10 5 12 -11 1 -24 3 -30 4 -5 1 -38 5 -73 9 -70 9 -81 16 -46 33 19 9 24 8 24 -3 0 -18 37 -27 97 -22 30 3 47 9 46 16 -4 17 22 15 37 -3 12 -14 40 -21 40 -10 0 8 -32 57 -48 74 -16 16 -29 7 -16 -12 5 -7 1 -5 -8 6 -11 12 -37 20 -75 24 -62 6 -87 18 -79 39 8 20 -10 26 -28 9z m4 -390 l35 -13 -28 -7 c-33 -9 -89 5 -95 23 -5 16 42 15 88 -3z m-43 -51 c84 -11 88 -13 70 -32 -34 -33 -146 19 -146 68 0 11 5 8 19 -8 11 -14 34 -25 57 -28z"/>
<path d="M819 258 c-2 -35 -10 -53 -35 -79 -25 -26 -25 -27 -5 -22 12 3 28 14 35 24 7 10 16 16 21 11 4 -4 5 5 3 21 -3 15 -1 30 3 33 14 8 10 24 -6 24 -8 0 -15 -6 -16 -12z"/>
</g>
<g id="layer108" fill="#e8a892" stroke="none">
<path d="M246 1133 c9 -37 17 -45 37 -37 11 4 17 17 17 35 0 26 -4 29 -30 29 -28 0 -30 -2 -24 -27z"/>
<path d="M320 1118 c0 -24 -5 -60 -11 -81 -6 -22 -8 -41 -6 -44 3 -2 24 8 48 24 23 15 62 40 86 54 25 14 48 32 53 39 13 22 125 5 190 -29 30 -16 60 -30 65 -32 6 -2 10 -36 10 -76 0 -39 3 -66 7 -60 4 7 8 21 8 32 0 11 9 31 20 45 26 33 25 52 -5 80 -14 13 -25 33 -25 45 0 42 -13 45 -232 45 l-208 0 0 -42z"/>
<path d="M827 1138 c18 -18 24 -19 37 -8 25 20 19 30 -21 30 l-37 0 21 -22z"/>
<path d="M366 885 c-8 -8 -18 -24 -21 -35 -3 -11 -12 -20 -18 -20 -14 0 -61 -95 -82 -165 -17 -59 -19 -154 -4 -295 8 -86 14 -106 32 -122 33 -28 68 -45 110 -52 20 -4 37 -11 37 -16 0 -15 40 -12 46 4 3 8 27 16 55 20 27 4 49 11 49 16 0 5 11 12 25 16 14 3 26 10 26 15 1 5 2 13 3 18 0 5 17 25 36 45 27 26 37 45 38 73 2 21 12 51 22 68 43 67 44 72 31 143 -17 91 -21 102 -32 102 -6 0 -7 -4 -4 -10 3 -5 1 -10 -6 -10 -6 0 -18 -8 -25 -17 -12 -16 -13 -13 -14 22 0 55 -10 85 -26 85 -8 0 -14 -5 -14 -11 0 -5 5 -7 10 -4 6 3 10 0 10 -7 -1 -36 -15 -57 -50 -73 -46 -21 -93 -101 -76 -128 7 -11 6 -23 -2 -39 -6 -13 -10 -32 -8 -43 3 -11 5 -23 5 -27 1 -9 83 -11 105 -2 28 11 17 19 -25 20 -22 1 -46 7 -52 13 -9 9 -8 11 6 6 10 -4 17 -2 17 4 0 6 18 14 41 17 27 5 36 10 27 15 -8 5 -1 7 19 5 44 -6 52 -12 46 -36 -15 -57 -115 -107 -177 -88 -34 11 -49 28 -24 28 6 0 4 6 -7 13 -15 12 -17 24 -13 89 6 89 -2 108 -42 108 -23 0 -30 5 -30 20 0 11 -6 20 -14 20 -8 0 -28 13 -46 30 -40 37 -31 58 13 31 39 -23 124 -36 157 -22 22 9 23 10 5 12 -11 1 -24 3 -30 4 -5 1 -38 5 -73 9 -34 4 -65 12 -68 17 -3 5 0 9 5 9 6 0 20 9 31 20 11 11 28 20 38 19 13 0 12 -2 -5 -9 -30 -12 -29 -38 1 -46 38 -9 121 0 119 14 -4 17 22 15 37 -3 12 -14 40 -21 40 -10 0 8 -32 57 -48 74 -16 16 -29 7 -16 -12 5 -7 1 -5 -8 6 -11 12 -37 20 -75 24 -62 6 -87 18 -79 39 8 20 -10 26 -28 9z m4 -390 l35 -13 -28 -7 c-33 -9 -89 5 -95 23 -5 16 42 15 88 -3z m-43 -51 c84 -11 88 -13 70 -32 -34 -33 -146 19 -146 68 0 11 5 8 19 -8 11 -14 34 -25 57 -28z"/>
<path d="M201 703 c-13 -27 -28 -56 -32 -65 -12 -24 -12 -68 0 -50 7 11 9 11 14 -2 4 -9 -1 -20 -11 -26 -12 -8 -13 -10 -2 -8 33 8 94 198 64 198 -5 0 -20 -21 -33 -47z"/>
<path d="M440 655 c-17 -10 -20 -14 -9 -15 9 0 22 7 29 15 15 18 12 18 -20 0z"/>
<path d="M851 595 c0 -11 4 -27 9 -35 9 -13 10 -13 9 0 0 8 -4 24 -9 35 l-9 20 0 -20z"/>
<path d="M795 273 c-11 -28 -15 -77 -6 -67 9 10 25 84 18 84 -3 0 -8 -8 -12 -17z"/>
<path d="M819 258 c-2 -35 -10 -53 -35 -79 -24 -26 -25 -27 -5 -22 25 6 65 58 56 72 -3 5 -1 12 5 16 15 9 12 25 -5 25 -8 0 -15 -6 -16 -12z"/>
</g>
<g id="layer109" fill="#e4cec6" stroke="none">
<path d="M245 1143 c4 -10 8 -23 8 -28 0 -6 10 -12 22 -13 18 -1 21 3 17 28 -3 24 -9 30 -29 30 -20 0 -24 -4 -18 -17z"/>
<path d="M822 1144 c9 -9 24 -14 32 -11 27 11 17 27 -16 27 -30 0 -31 -1 -16 -16z"/>
<path d="M409 757 c11 -11 111 -16 111 -6 0 12 -31 19 -77 17 -26 -2 -39 -6 -34 -11z"/>
<path d="M720 572 c0 -5 7 -15 15 -22 8 -7 15 -8 15 -2 0 5 -7 15 -15 22 -8 7 -15 8 -15 2z"/>
<path d="M720 520 c-8 -5 -11 -12 -8 -16 9 -8 -17 -61 -43 -89 -19 -22 -23 -88 -4 -82 6 2 10 8 10 13 0 18 38 110 56 136 29 41 24 60 -11 38z"/>
</g>


</svg>